G75*
%MOIN*%
%OFA0B0*%
%FSLAX25Y25*%
%IPPOS*%
%LPD*%
%AMOC8*
5,1,8,0,0,1.08239X$1,22.5*
%
%ADD10R,0.04343X0.04343*%
%ADD11R,0.03950X0.03950*%
%ADD12C,0.05524*%
%ADD13R,0.07887X0.07887*%
%ADD14C,0.10249*%
%ADD15C,0.03778*%
%ADD16C,0.05156*%
D10*
X0017048Y0104009D03*
X0017874Y0104009D03*
X0017874Y0113923D03*
X0017048Y0113923D03*
X0017063Y0119125D03*
X0017889Y0119125D03*
X0017889Y0123943D03*
X0017063Y0123943D03*
X0017204Y0133995D03*
X0018031Y0133995D03*
X0017982Y0138973D03*
X0017155Y0138973D03*
X0017155Y0144068D03*
X0017982Y0144068D03*
X0018123Y0149025D03*
X0017297Y0149025D03*
X0101497Y0147334D03*
X0102323Y0147334D03*
X0102323Y0142515D03*
X0101497Y0142515D03*
X0101497Y0137421D03*
X0102323Y0137421D03*
X0102182Y0132464D03*
X0101355Y0132464D03*
X0101404Y0127485D03*
X0102231Y0127485D03*
X0102231Y0122391D03*
X0101404Y0122391D03*
X0101262Y0117434D03*
X0102089Y0117434D03*
D11*
X0134295Y0141122D03*
X0134295Y0143131D03*
X0139395Y0143131D03*
X0139395Y0141122D03*
X0144495Y0141122D03*
X0144495Y0143131D03*
X0149595Y0143071D03*
X0149595Y0141122D03*
X0159795Y0141122D03*
X0159795Y0143191D03*
X0164895Y0143131D03*
X0164895Y0141122D03*
X0169995Y0141122D03*
X0169935Y0143131D03*
X0175095Y0143011D03*
X0175095Y0141122D03*
X0163733Y0080347D03*
X0163733Y0077347D03*
X0166966Y0059511D03*
X0167828Y0059534D03*
D12*
X0146145Y0076879D03*
X0141824Y0081074D03*
X0144473Y0087158D03*
X0148928Y0083048D03*
D13*
X0143224Y0052286D03*
X0157753Y0051800D03*
D14*
X0119990Y0052923D03*
D15*
X0141839Y0081030D03*
X0141912Y0081092D03*
X0144513Y0087190D03*
X0148963Y0083000D03*
X0134326Y0142938D03*
X0139332Y0143390D03*
X0144499Y0143148D03*
X0149666Y0143228D03*
D16*
X0100529Y0142491D03*
X0100529Y0137464D03*
X0100529Y0132436D03*
X0100436Y0127461D03*
X0100436Y0122434D03*
X0100436Y0117406D03*
X0100529Y0147515D03*
X0018950Y0149052D03*
X0018950Y0144025D03*
X0018950Y0138997D03*
X0018857Y0134022D03*
X0018857Y0123967D03*
X0018857Y0118943D03*
X0018842Y0113879D03*
X0018842Y0103828D03*
M02*
