G75*
%MOIN*%
%OFA0B0*%
%FSLAX25Y25*%
%IPPOS*%
%LPD*%
%AMOC8*
5,1,8,0,0,1.08239X$1,22.5*
%
%ADD10C,0.00200*%
D10*
X0134576Y0059061D02*
X0135354Y0059061D01*
X0135395Y0059063D01*
X0135435Y0059068D01*
X0135475Y0059077D01*
X0135514Y0059089D01*
X0135551Y0059105D01*
X0135588Y0059124D01*
X0135622Y0059145D01*
X0135654Y0059170D01*
X0135684Y0059198D01*
X0135712Y0059228D01*
X0135737Y0059260D01*
X0135758Y0059295D01*
X0135777Y0059331D01*
X0135793Y0059368D01*
X0135805Y0059407D01*
X0135814Y0059447D01*
X0135819Y0059487D01*
X0135821Y0059528D01*
X0135821Y0060306D01*
X0135821Y0059995D02*
X0134576Y0059995D01*
X0134576Y0060306D01*
X0134578Y0060355D01*
X0134584Y0060403D01*
X0134593Y0060451D01*
X0134606Y0060498D01*
X0134623Y0060544D01*
X0134644Y0060588D01*
X0134668Y0060631D01*
X0134695Y0060672D01*
X0134725Y0060710D01*
X0134758Y0060746D01*
X0134794Y0060779D01*
X0134832Y0060809D01*
X0134873Y0060836D01*
X0134916Y0060860D01*
X0134960Y0060881D01*
X0135006Y0060898D01*
X0135053Y0060911D01*
X0135101Y0060920D01*
X0135149Y0060926D01*
X0135198Y0060928D01*
X0135247Y0060926D01*
X0135295Y0060920D01*
X0135343Y0060911D01*
X0135390Y0060898D01*
X0135436Y0060881D01*
X0135480Y0060860D01*
X0135523Y0060836D01*
X0135564Y0060809D01*
X0135602Y0060779D01*
X0135638Y0060746D01*
X0135671Y0060710D01*
X0135701Y0060672D01*
X0135728Y0060631D01*
X0135752Y0060588D01*
X0135773Y0060544D01*
X0135790Y0060498D01*
X0135803Y0060451D01*
X0135812Y0060403D01*
X0135818Y0060355D01*
X0135820Y0060306D01*
X0136799Y0060928D02*
X0137421Y0060928D01*
X0137462Y0060926D01*
X0137502Y0060921D01*
X0137542Y0060912D01*
X0137581Y0060900D01*
X0137618Y0060884D01*
X0137655Y0060865D01*
X0137689Y0060844D01*
X0137721Y0060819D01*
X0137751Y0060791D01*
X0137779Y0060761D01*
X0137804Y0060729D01*
X0137825Y0060695D01*
X0137844Y0060658D01*
X0137860Y0060621D01*
X0137872Y0060582D01*
X0137881Y0060542D01*
X0137886Y0060502D01*
X0137888Y0060461D01*
X0137888Y0059528D01*
X0137886Y0059487D01*
X0137881Y0059447D01*
X0137872Y0059407D01*
X0137860Y0059368D01*
X0137844Y0059331D01*
X0137825Y0059295D01*
X0137804Y0059260D01*
X0137779Y0059228D01*
X0137751Y0059198D01*
X0137721Y0059170D01*
X0137689Y0059145D01*
X0137655Y0059124D01*
X0137618Y0059105D01*
X0137581Y0059089D01*
X0137542Y0059077D01*
X0137502Y0059068D01*
X0137462Y0059063D01*
X0137421Y0059061D01*
X0136799Y0059061D01*
X0138743Y0060617D02*
X0138743Y0060928D01*
X0139676Y0060928D01*
X0139676Y0059061D01*
X0140966Y0059061D02*
X0140966Y0060928D01*
X0142211Y0060928D02*
X0142211Y0059528D01*
X0142209Y0059487D01*
X0142204Y0059447D01*
X0142195Y0059407D01*
X0142183Y0059368D01*
X0142167Y0059331D01*
X0142148Y0059295D01*
X0142127Y0059260D01*
X0142102Y0059228D01*
X0142074Y0059198D01*
X0142044Y0059170D01*
X0142012Y0059145D01*
X0141978Y0059124D01*
X0141941Y0059105D01*
X0141904Y0059089D01*
X0141865Y0059077D01*
X0141825Y0059068D01*
X0141785Y0059063D01*
X0141744Y0059061D01*
X0140966Y0059061D01*
X0143396Y0059684D02*
X0143396Y0060306D01*
X0143398Y0060355D01*
X0143404Y0060403D01*
X0143413Y0060451D01*
X0143426Y0060498D01*
X0143443Y0060544D01*
X0143464Y0060588D01*
X0143488Y0060631D01*
X0143515Y0060672D01*
X0143545Y0060710D01*
X0143578Y0060746D01*
X0143614Y0060779D01*
X0143652Y0060809D01*
X0143693Y0060836D01*
X0143736Y0060860D01*
X0143780Y0060881D01*
X0143826Y0060898D01*
X0143873Y0060911D01*
X0143921Y0060920D01*
X0143969Y0060926D01*
X0144018Y0060928D01*
X0144067Y0060926D01*
X0144115Y0060920D01*
X0144163Y0060911D01*
X0144210Y0060898D01*
X0144256Y0060881D01*
X0144300Y0060860D01*
X0144343Y0060836D01*
X0144384Y0060809D01*
X0144422Y0060779D01*
X0144458Y0060746D01*
X0144491Y0060710D01*
X0144521Y0060672D01*
X0144548Y0060631D01*
X0144572Y0060588D01*
X0144593Y0060544D01*
X0144610Y0060498D01*
X0144623Y0060451D01*
X0144632Y0060403D01*
X0144638Y0060355D01*
X0144640Y0060306D01*
X0144641Y0060306D02*
X0144641Y0059684D01*
X0144640Y0059684D02*
X0144638Y0059635D01*
X0144632Y0059587D01*
X0144623Y0059539D01*
X0144610Y0059492D01*
X0144593Y0059446D01*
X0144572Y0059402D01*
X0144548Y0059359D01*
X0144521Y0059318D01*
X0144491Y0059280D01*
X0144458Y0059244D01*
X0144422Y0059211D01*
X0144384Y0059181D01*
X0144343Y0059154D01*
X0144300Y0059130D01*
X0144256Y0059109D01*
X0144210Y0059092D01*
X0144163Y0059079D01*
X0144115Y0059070D01*
X0144067Y0059064D01*
X0144018Y0059062D01*
X0143969Y0059064D01*
X0143921Y0059070D01*
X0143873Y0059079D01*
X0143826Y0059092D01*
X0143780Y0059109D01*
X0143736Y0059130D01*
X0143693Y0059154D01*
X0143652Y0059181D01*
X0143614Y0059211D01*
X0143578Y0059244D01*
X0143545Y0059280D01*
X0143515Y0059318D01*
X0143488Y0059359D01*
X0143464Y0059402D01*
X0143443Y0059446D01*
X0143426Y0059492D01*
X0143413Y0059539D01*
X0143404Y0059587D01*
X0143398Y0059635D01*
X0143396Y0059684D01*
X0145969Y0059839D02*
X0146747Y0060150D01*
X0146747Y0060151D02*
X0146782Y0060167D01*
X0146815Y0060186D01*
X0146847Y0060209D01*
X0146876Y0060234D01*
X0146902Y0060262D01*
X0146926Y0060292D01*
X0146947Y0060325D01*
X0146964Y0060359D01*
X0146978Y0060395D01*
X0146989Y0060432D01*
X0146996Y0060470D01*
X0147000Y0060508D01*
X0146999Y0060547D01*
X0146996Y0060585D01*
X0146988Y0060623D01*
X0146977Y0060660D01*
X0146962Y0060695D01*
X0146944Y0060730D01*
X0146923Y0060762D01*
X0146899Y0060792D01*
X0146872Y0060820D01*
X0146843Y0060844D01*
X0146811Y0060866D01*
X0146777Y0060885D01*
X0146742Y0060901D01*
X0146706Y0060913D01*
X0146668Y0060922D01*
X0146630Y0060927D01*
X0146591Y0060928D01*
X0146980Y0059217D02*
X0146888Y0059186D01*
X0146795Y0059158D01*
X0146701Y0059134D01*
X0146607Y0059113D01*
X0146511Y0059095D01*
X0146415Y0059081D01*
X0146318Y0059071D01*
X0146222Y0059064D01*
X0146125Y0059061D01*
X0146125Y0059062D02*
X0146086Y0059063D01*
X0146048Y0059068D01*
X0146010Y0059077D01*
X0145974Y0059089D01*
X0145939Y0059105D01*
X0145905Y0059124D01*
X0145873Y0059146D01*
X0145844Y0059170D01*
X0145817Y0059198D01*
X0145793Y0059228D01*
X0145772Y0059260D01*
X0145754Y0059295D01*
X0145739Y0059330D01*
X0145728Y0059367D01*
X0145720Y0059405D01*
X0145717Y0059443D01*
X0145716Y0059482D01*
X0145720Y0059520D01*
X0145727Y0059558D01*
X0145738Y0059595D01*
X0145752Y0059631D01*
X0145769Y0059665D01*
X0145790Y0059698D01*
X0145814Y0059728D01*
X0145840Y0059756D01*
X0145869Y0059781D01*
X0145901Y0059804D01*
X0145934Y0059823D01*
X0145969Y0059839D01*
X0145892Y0060773D02*
X0145965Y0060805D01*
X0146041Y0060832D01*
X0146117Y0060857D01*
X0146195Y0060878D01*
X0146273Y0060895D01*
X0146352Y0060909D01*
X0146432Y0060919D01*
X0146512Y0060926D01*
X0146592Y0060929D01*
X0148326Y0063561D02*
X0146926Y0067561D01*
X0147423Y0067810D01*
X0147856Y0068160D01*
X0148203Y0068593D01*
X0148450Y0069092D01*
X0148584Y0069631D01*
X0148599Y0070187D01*
X0148496Y0070733D01*
X0148277Y0071244D01*
X0147955Y0071697D01*
X0147543Y0072070D01*
X0147060Y0072346D01*
X0146530Y0072512D01*
X0145976Y0072561D01*
X0145441Y0072496D01*
X0144930Y0072322D01*
X0144465Y0072048D01*
X0144066Y0071685D01*
X0143749Y0071248D01*
X0143528Y0070755D01*
X0143412Y0070228D01*
X0143406Y0069689D01*
X0143510Y0069159D01*
X0143720Y0068662D01*
X0144027Y0068218D01*
X0144418Y0067846D01*
X0144876Y0067561D01*
X0143326Y0063661D01*
X0142726Y0063911D01*
X0142126Y0064311D01*
X0140126Y0062911D01*
X0139726Y0063261D01*
X0139376Y0063611D01*
X0138976Y0064061D01*
X0138626Y0064511D01*
X0140076Y0066611D01*
X0139726Y0067211D01*
X0139526Y0067811D01*
X0139326Y0068611D01*
X0136876Y0069061D01*
X0136876Y0070211D01*
X0136926Y0070761D01*
X0136976Y0071261D01*
X0139426Y0071711D01*
X0139626Y0072361D01*
X0139876Y0072911D01*
X0140226Y0073511D01*
X0140276Y0073611D01*
X0138876Y0075561D01*
X0139276Y0076061D01*
X0139776Y0076561D01*
X0140176Y0076911D01*
X0140526Y0077161D01*
X0142576Y0075711D01*
X0143026Y0075961D01*
X0143476Y0076161D01*
X0143926Y0076361D01*
X0144376Y0076461D01*
X0144826Y0078911D01*
X0145426Y0078961D01*
X0146576Y0078961D01*
X0147076Y0078911D01*
X0147476Y0076511D01*
X0148226Y0076261D01*
X0148726Y0076061D01*
X0149426Y0075661D01*
X0151426Y0077111D01*
X0151876Y0076761D01*
X0152376Y0076261D01*
X0152776Y0075811D01*
X0153026Y0075561D01*
X0151626Y0073511D01*
X0151926Y0073011D01*
X0152226Y0072361D01*
X0152376Y0071811D01*
X0152526Y0071461D01*
X0154976Y0071061D01*
X0154976Y0068861D01*
X0152526Y0068461D01*
X0152326Y0067761D01*
X0152176Y0067261D01*
X0151976Y0066861D01*
X0151626Y0066261D01*
X0153076Y0064261D01*
X0152676Y0063811D01*
X0152326Y0063461D01*
X0151876Y0063061D01*
X0151526Y0062761D01*
X0149476Y0064161D01*
X0148326Y0063561D01*
X0148323Y0063570D02*
X0148342Y0063570D01*
X0148254Y0063768D02*
X0148722Y0063768D01*
X0149103Y0063967D02*
X0148184Y0063967D01*
X0148115Y0064165D02*
X0152991Y0064165D01*
X0153002Y0064364D02*
X0148045Y0064364D01*
X0147976Y0064562D02*
X0152858Y0064562D01*
X0152714Y0064761D02*
X0147906Y0064761D01*
X0147837Y0064959D02*
X0152570Y0064959D01*
X0152426Y0065158D02*
X0147768Y0065158D01*
X0147698Y0065356D02*
X0152282Y0065356D01*
X0152139Y0065555D02*
X0147629Y0065555D01*
X0147559Y0065753D02*
X0151995Y0065753D01*
X0151851Y0065952D02*
X0147490Y0065952D01*
X0147420Y0066150D02*
X0151707Y0066150D01*
X0151677Y0066349D02*
X0147351Y0066349D01*
X0147281Y0066547D02*
X0151793Y0066547D01*
X0151909Y0066746D02*
X0147212Y0066746D01*
X0147142Y0066944D02*
X0152018Y0066944D01*
X0152117Y0067143D02*
X0147073Y0067143D01*
X0147003Y0067341D02*
X0152200Y0067341D01*
X0152260Y0067540D02*
X0146934Y0067540D01*
X0147280Y0067738D02*
X0152319Y0067738D01*
X0152376Y0067937D02*
X0147580Y0067937D01*
X0147826Y0068135D02*
X0152433Y0068135D01*
X0152490Y0068334D02*
X0147995Y0068334D01*
X0148154Y0068532D02*
X0152961Y0068532D01*
X0154177Y0068731D02*
X0148271Y0068731D01*
X0148369Y0068929D02*
X0154976Y0068929D01*
X0154976Y0069128D02*
X0148459Y0069128D01*
X0148508Y0069326D02*
X0154976Y0069326D01*
X0154976Y0069525D02*
X0148558Y0069525D01*
X0148587Y0069723D02*
X0154976Y0069723D01*
X0154976Y0069922D02*
X0148592Y0069922D01*
X0148598Y0070121D02*
X0154976Y0070121D01*
X0154976Y0070319D02*
X0148574Y0070319D01*
X0148537Y0070518D02*
X0154976Y0070518D01*
X0154976Y0070716D02*
X0148499Y0070716D01*
X0148418Y0070915D02*
X0154976Y0070915D01*
X0154660Y0071113D02*
X0148333Y0071113D01*
X0148229Y0071312D02*
X0153444Y0071312D01*
X0152505Y0071510D02*
X0148088Y0071510D01*
X0147942Y0071709D02*
X0152420Y0071709D01*
X0152350Y0071907D02*
X0147722Y0071907D01*
X0147480Y0072106D02*
X0152296Y0072106D01*
X0152242Y0072304D02*
X0147133Y0072304D01*
X0146561Y0072503D02*
X0152161Y0072503D01*
X0152069Y0072701D02*
X0139781Y0072701D01*
X0139690Y0072503D02*
X0145497Y0072503D01*
X0144899Y0072304D02*
X0139609Y0072304D01*
X0139548Y0072106D02*
X0144563Y0072106D01*
X0144310Y0071907D02*
X0139486Y0071907D01*
X0139411Y0071709D02*
X0144092Y0071709D01*
X0143939Y0071510D02*
X0138330Y0071510D01*
X0137249Y0071312D02*
X0143795Y0071312D01*
X0143688Y0071113D02*
X0136961Y0071113D01*
X0136942Y0070915D02*
X0143599Y0070915D01*
X0143519Y0070716D02*
X0136922Y0070716D01*
X0136904Y0070518D02*
X0143475Y0070518D01*
X0143432Y0070319D02*
X0136886Y0070319D01*
X0136876Y0070121D02*
X0143411Y0070121D01*
X0143408Y0069922D02*
X0136876Y0069922D01*
X0136876Y0069723D02*
X0143406Y0069723D01*
X0143438Y0069525D02*
X0136876Y0069525D01*
X0136876Y0069326D02*
X0143477Y0069326D01*
X0143523Y0069128D02*
X0136876Y0069128D01*
X0137595Y0068929D02*
X0143607Y0068929D01*
X0143691Y0068731D02*
X0138676Y0068731D01*
X0139346Y0068532D02*
X0143809Y0068532D01*
X0143947Y0068334D02*
X0139396Y0068334D01*
X0139445Y0068135D02*
X0144113Y0068135D01*
X0144322Y0067937D02*
X0139495Y0067937D01*
X0139551Y0067738D02*
X0144591Y0067738D01*
X0144868Y0067540D02*
X0139617Y0067540D01*
X0139683Y0067341D02*
X0144789Y0067341D01*
X0144710Y0067143D02*
X0139766Y0067143D01*
X0139882Y0066944D02*
X0144631Y0066944D01*
X0144552Y0066746D02*
X0139998Y0066746D01*
X0140032Y0066547D02*
X0144473Y0066547D01*
X0144394Y0066349D02*
X0139895Y0066349D01*
X0139758Y0066150D02*
X0144315Y0066150D01*
X0144237Y0065952D02*
X0139621Y0065952D01*
X0139484Y0065753D02*
X0144158Y0065753D01*
X0144079Y0065555D02*
X0139347Y0065555D01*
X0139210Y0065356D02*
X0144000Y0065356D01*
X0143921Y0065158D02*
X0139072Y0065158D01*
X0138935Y0064959D02*
X0143842Y0064959D01*
X0143763Y0064761D02*
X0138798Y0064761D01*
X0138661Y0064562D02*
X0143684Y0064562D01*
X0143605Y0064364D02*
X0138741Y0064364D01*
X0138896Y0064165D02*
X0141917Y0064165D01*
X0141634Y0063967D02*
X0139060Y0063967D01*
X0139237Y0063768D02*
X0141350Y0063768D01*
X0141067Y0063570D02*
X0139418Y0063570D01*
X0139617Y0063371D02*
X0140783Y0063371D01*
X0140499Y0063173D02*
X0139828Y0063173D01*
X0140055Y0062974D02*
X0140216Y0062974D01*
X0142346Y0064165D02*
X0143526Y0064165D01*
X0143448Y0063967D02*
X0142643Y0063967D01*
X0143070Y0063768D02*
X0143369Y0063768D01*
X0146649Y0057361D02*
X0146649Y0054561D01*
X0147427Y0054561D01*
X0147468Y0054563D01*
X0147508Y0054568D01*
X0147548Y0054577D01*
X0147587Y0054589D01*
X0147624Y0054605D01*
X0147661Y0054624D01*
X0147695Y0054645D01*
X0147727Y0054670D01*
X0147757Y0054698D01*
X0147785Y0054728D01*
X0147810Y0054760D01*
X0147831Y0054795D01*
X0147850Y0054831D01*
X0147866Y0054868D01*
X0147878Y0054907D01*
X0147887Y0054947D01*
X0147892Y0054987D01*
X0147894Y0055028D01*
X0147893Y0055028D02*
X0147893Y0055961D01*
X0147894Y0055961D02*
X0147892Y0056002D01*
X0147887Y0056042D01*
X0147878Y0056082D01*
X0147866Y0056121D01*
X0147850Y0056158D01*
X0147831Y0056195D01*
X0147810Y0056229D01*
X0147785Y0056261D01*
X0147757Y0056291D01*
X0147727Y0056319D01*
X0147695Y0056344D01*
X0147661Y0056365D01*
X0147624Y0056384D01*
X0147587Y0056400D01*
X0147548Y0056412D01*
X0147508Y0056421D01*
X0147468Y0056426D01*
X0147427Y0056428D01*
X0146649Y0056428D01*
X0145492Y0056428D02*
X0145025Y0054561D01*
X0144558Y0055806D01*
X0144092Y0054561D01*
X0143625Y0056428D01*
X0142428Y0056428D02*
X0141806Y0056428D01*
X0141765Y0056426D01*
X0141725Y0056421D01*
X0141685Y0056412D01*
X0141646Y0056400D01*
X0141609Y0056384D01*
X0141573Y0056365D01*
X0141538Y0056344D01*
X0141506Y0056319D01*
X0141476Y0056291D01*
X0141448Y0056261D01*
X0141423Y0056229D01*
X0141402Y0056195D01*
X0141383Y0056158D01*
X0141367Y0056121D01*
X0141355Y0056082D01*
X0141346Y0056042D01*
X0141341Y0056002D01*
X0141339Y0055961D01*
X0141339Y0054561D01*
X0142039Y0054561D01*
X0142039Y0054562D02*
X0142084Y0054564D01*
X0142129Y0054569D01*
X0142173Y0054579D01*
X0142216Y0054591D01*
X0142258Y0054608D01*
X0142298Y0054628D01*
X0142337Y0054651D01*
X0142373Y0054677D01*
X0142407Y0054706D01*
X0142439Y0054738D01*
X0142468Y0054772D01*
X0142494Y0054808D01*
X0142517Y0054847D01*
X0142537Y0054887D01*
X0142554Y0054929D01*
X0142566Y0054972D01*
X0142576Y0055016D01*
X0142581Y0055061D01*
X0142583Y0055106D01*
X0142581Y0055151D01*
X0142576Y0055196D01*
X0142566Y0055240D01*
X0142554Y0055283D01*
X0142537Y0055325D01*
X0142517Y0055365D01*
X0142494Y0055404D01*
X0142468Y0055440D01*
X0142439Y0055474D01*
X0142407Y0055506D01*
X0142373Y0055535D01*
X0142337Y0055561D01*
X0142298Y0055584D01*
X0142258Y0055604D01*
X0142216Y0055621D01*
X0142173Y0055633D01*
X0142129Y0055643D01*
X0142084Y0055648D01*
X0142039Y0055650D01*
X0141339Y0055650D01*
X0140036Y0056428D02*
X0140036Y0054561D01*
X0139103Y0056117D02*
X0139103Y0056428D01*
X0140036Y0056428D01*
X0138251Y0055806D02*
X0138251Y0055028D01*
X0138251Y0055495D02*
X0137006Y0055495D01*
X0137006Y0055806D01*
X0137008Y0055855D01*
X0137014Y0055903D01*
X0137023Y0055951D01*
X0137036Y0055998D01*
X0137053Y0056044D01*
X0137074Y0056088D01*
X0137098Y0056131D01*
X0137125Y0056172D01*
X0137155Y0056210D01*
X0137188Y0056246D01*
X0137224Y0056279D01*
X0137262Y0056309D01*
X0137303Y0056336D01*
X0137346Y0056360D01*
X0137390Y0056381D01*
X0137436Y0056398D01*
X0137483Y0056411D01*
X0137531Y0056420D01*
X0137579Y0056426D01*
X0137628Y0056428D01*
X0137677Y0056426D01*
X0137725Y0056420D01*
X0137773Y0056411D01*
X0137820Y0056398D01*
X0137866Y0056381D01*
X0137910Y0056360D01*
X0137953Y0056336D01*
X0137994Y0056309D01*
X0138032Y0056279D01*
X0138068Y0056246D01*
X0138101Y0056210D01*
X0138131Y0056172D01*
X0138158Y0056131D01*
X0138182Y0056088D01*
X0138203Y0056044D01*
X0138220Y0055998D01*
X0138233Y0055951D01*
X0138242Y0055903D01*
X0138248Y0055855D01*
X0138250Y0055806D01*
X0138251Y0055028D02*
X0138249Y0054987D01*
X0138244Y0054947D01*
X0138235Y0054907D01*
X0138223Y0054868D01*
X0138207Y0054831D01*
X0138188Y0054795D01*
X0138167Y0054760D01*
X0138142Y0054728D01*
X0138114Y0054698D01*
X0138084Y0054670D01*
X0138052Y0054645D01*
X0138018Y0054624D01*
X0137981Y0054605D01*
X0137944Y0054589D01*
X0137905Y0054577D01*
X0137865Y0054568D01*
X0137825Y0054563D01*
X0137784Y0054561D01*
X0137006Y0054561D01*
X0148733Y0056117D02*
X0148733Y0056428D01*
X0149666Y0056428D01*
X0149666Y0054561D01*
X0150969Y0054561D02*
X0150969Y0055961D01*
X0150969Y0055650D02*
X0151669Y0055650D01*
X0150969Y0055961D02*
X0150971Y0056002D01*
X0150976Y0056042D01*
X0150985Y0056082D01*
X0150997Y0056121D01*
X0151013Y0056158D01*
X0151032Y0056195D01*
X0151053Y0056229D01*
X0151078Y0056261D01*
X0151106Y0056291D01*
X0151136Y0056319D01*
X0151168Y0056344D01*
X0151203Y0056365D01*
X0151239Y0056384D01*
X0151276Y0056400D01*
X0151315Y0056412D01*
X0151355Y0056421D01*
X0151395Y0056426D01*
X0151436Y0056428D01*
X0152058Y0056428D01*
X0151669Y0055650D02*
X0151714Y0055648D01*
X0151759Y0055643D01*
X0151803Y0055633D01*
X0151846Y0055621D01*
X0151888Y0055604D01*
X0151928Y0055584D01*
X0151967Y0055561D01*
X0152003Y0055535D01*
X0152037Y0055506D01*
X0152069Y0055474D01*
X0152098Y0055440D01*
X0152124Y0055404D01*
X0152147Y0055365D01*
X0152167Y0055325D01*
X0152184Y0055283D01*
X0152196Y0055240D01*
X0152206Y0055196D01*
X0152211Y0055151D01*
X0152213Y0055106D01*
X0152211Y0055061D01*
X0152206Y0055016D01*
X0152196Y0054972D01*
X0152184Y0054929D01*
X0152167Y0054887D01*
X0152147Y0054847D01*
X0152124Y0054808D01*
X0152098Y0054772D01*
X0152069Y0054738D01*
X0152037Y0054706D01*
X0152003Y0054677D01*
X0151967Y0054651D01*
X0151928Y0054628D01*
X0151888Y0054608D01*
X0151846Y0054591D01*
X0151803Y0054579D01*
X0151759Y0054569D01*
X0151714Y0054564D01*
X0151669Y0054562D01*
X0151669Y0054561D02*
X0150969Y0054561D01*
X0153386Y0054561D02*
X0153386Y0055961D01*
X0153388Y0056004D01*
X0153394Y0056047D01*
X0153404Y0056089D01*
X0153418Y0056130D01*
X0153435Y0056169D01*
X0153456Y0056207D01*
X0153480Y0056242D01*
X0153508Y0056276D01*
X0153538Y0056306D01*
X0153572Y0056334D01*
X0153607Y0056358D01*
X0153645Y0056379D01*
X0153684Y0056396D01*
X0153725Y0056410D01*
X0153767Y0056420D01*
X0153810Y0056426D01*
X0153853Y0056428D01*
X0154631Y0056428D01*
X0154631Y0057361D02*
X0154631Y0054561D01*
X0155608Y0058128D02*
X0155608Y0060928D01*
X0154830Y0060928D01*
X0154787Y0060926D01*
X0154744Y0060920D01*
X0154702Y0060910D01*
X0154661Y0060896D01*
X0154622Y0060879D01*
X0154584Y0060858D01*
X0154549Y0060834D01*
X0154515Y0060806D01*
X0154485Y0060776D01*
X0154457Y0060742D01*
X0154433Y0060707D01*
X0154412Y0060669D01*
X0154395Y0060630D01*
X0154381Y0060589D01*
X0154371Y0060547D01*
X0154365Y0060504D01*
X0154363Y0060461D01*
X0154363Y0059528D01*
X0154365Y0059487D01*
X0154370Y0059447D01*
X0154379Y0059407D01*
X0154391Y0059368D01*
X0154407Y0059331D01*
X0154426Y0059294D01*
X0154447Y0059260D01*
X0154472Y0059228D01*
X0154500Y0059198D01*
X0154530Y0059170D01*
X0154562Y0059145D01*
X0154597Y0059124D01*
X0154633Y0059105D01*
X0154670Y0059089D01*
X0154709Y0059077D01*
X0154749Y0059068D01*
X0154789Y0059063D01*
X0154830Y0059061D01*
X0155608Y0059061D01*
X0156806Y0059684D02*
X0156806Y0060306D01*
X0156808Y0060355D01*
X0156814Y0060403D01*
X0156823Y0060451D01*
X0156836Y0060498D01*
X0156853Y0060544D01*
X0156874Y0060588D01*
X0156898Y0060631D01*
X0156925Y0060672D01*
X0156955Y0060710D01*
X0156988Y0060746D01*
X0157024Y0060779D01*
X0157062Y0060809D01*
X0157103Y0060836D01*
X0157146Y0060860D01*
X0157190Y0060881D01*
X0157236Y0060898D01*
X0157283Y0060911D01*
X0157331Y0060920D01*
X0157379Y0060926D01*
X0157428Y0060928D01*
X0157477Y0060926D01*
X0157525Y0060920D01*
X0157573Y0060911D01*
X0157620Y0060898D01*
X0157666Y0060881D01*
X0157710Y0060860D01*
X0157753Y0060836D01*
X0157794Y0060809D01*
X0157832Y0060779D01*
X0157868Y0060746D01*
X0157901Y0060710D01*
X0157931Y0060672D01*
X0157958Y0060631D01*
X0157982Y0060588D01*
X0158003Y0060544D01*
X0158020Y0060498D01*
X0158033Y0060451D01*
X0158042Y0060403D01*
X0158048Y0060355D01*
X0158050Y0060306D01*
X0158051Y0060306D02*
X0158051Y0059684D01*
X0158050Y0059684D02*
X0158048Y0059635D01*
X0158042Y0059587D01*
X0158033Y0059539D01*
X0158020Y0059492D01*
X0158003Y0059446D01*
X0157982Y0059402D01*
X0157958Y0059359D01*
X0157931Y0059318D01*
X0157901Y0059280D01*
X0157868Y0059244D01*
X0157832Y0059211D01*
X0157794Y0059181D01*
X0157753Y0059154D01*
X0157710Y0059130D01*
X0157666Y0059109D01*
X0157620Y0059092D01*
X0157573Y0059079D01*
X0157525Y0059070D01*
X0157477Y0059064D01*
X0157428Y0059062D01*
X0157379Y0059064D01*
X0157331Y0059070D01*
X0157283Y0059079D01*
X0157236Y0059092D01*
X0157190Y0059109D01*
X0157146Y0059130D01*
X0157103Y0059154D01*
X0157062Y0059181D01*
X0157024Y0059211D01*
X0156988Y0059244D01*
X0156955Y0059280D01*
X0156925Y0059318D01*
X0156898Y0059359D01*
X0156874Y0059402D01*
X0156853Y0059446D01*
X0156836Y0059492D01*
X0156823Y0059539D01*
X0156814Y0059587D01*
X0156808Y0059635D01*
X0156806Y0059684D01*
X0153281Y0059528D02*
X0153281Y0060306D01*
X0153281Y0059995D02*
X0152036Y0059995D01*
X0152036Y0060306D01*
X0152038Y0060355D01*
X0152044Y0060403D01*
X0152053Y0060451D01*
X0152066Y0060498D01*
X0152083Y0060544D01*
X0152104Y0060588D01*
X0152128Y0060631D01*
X0152155Y0060672D01*
X0152185Y0060710D01*
X0152218Y0060746D01*
X0152254Y0060779D01*
X0152292Y0060809D01*
X0152333Y0060836D01*
X0152376Y0060860D01*
X0152420Y0060881D01*
X0152466Y0060898D01*
X0152513Y0060911D01*
X0152561Y0060920D01*
X0152609Y0060926D01*
X0152658Y0060928D01*
X0152707Y0060926D01*
X0152755Y0060920D01*
X0152803Y0060911D01*
X0152850Y0060898D01*
X0152896Y0060881D01*
X0152940Y0060860D01*
X0152983Y0060836D01*
X0153024Y0060809D01*
X0153062Y0060779D01*
X0153098Y0060746D01*
X0153131Y0060710D01*
X0153161Y0060672D01*
X0153188Y0060631D01*
X0153212Y0060588D01*
X0153233Y0060544D01*
X0153250Y0060498D01*
X0153263Y0060451D01*
X0153272Y0060403D01*
X0153278Y0060355D01*
X0153280Y0060306D01*
X0153281Y0059528D02*
X0153279Y0059487D01*
X0153274Y0059447D01*
X0153265Y0059407D01*
X0153253Y0059368D01*
X0153237Y0059331D01*
X0153218Y0059295D01*
X0153197Y0059260D01*
X0153172Y0059228D01*
X0153144Y0059198D01*
X0153114Y0059170D01*
X0153082Y0059145D01*
X0153048Y0059124D01*
X0153011Y0059105D01*
X0152974Y0059089D01*
X0152935Y0059077D01*
X0152895Y0059068D01*
X0152855Y0059063D01*
X0152814Y0059061D01*
X0152036Y0059061D01*
X0150851Y0059061D02*
X0150851Y0060928D01*
X0150073Y0060928D01*
X0150030Y0060926D01*
X0149987Y0060920D01*
X0149945Y0060910D01*
X0149904Y0060896D01*
X0149865Y0060879D01*
X0149827Y0060858D01*
X0149792Y0060834D01*
X0149758Y0060806D01*
X0149728Y0060776D01*
X0149700Y0060742D01*
X0149676Y0060707D01*
X0149655Y0060669D01*
X0149638Y0060630D01*
X0149624Y0060589D01*
X0149614Y0060547D01*
X0149608Y0060504D01*
X0149606Y0060461D01*
X0149606Y0059061D01*
X0151505Y0062776D02*
X0151543Y0062776D01*
X0151774Y0062974D02*
X0151215Y0062974D01*
X0150924Y0063173D02*
X0152001Y0063173D01*
X0152225Y0063371D02*
X0150633Y0063371D01*
X0150343Y0063570D02*
X0152434Y0063570D01*
X0152633Y0063768D02*
X0150052Y0063768D01*
X0149761Y0063967D02*
X0152814Y0063967D01*
X0151978Y0072900D02*
X0139871Y0072900D01*
X0139985Y0073098D02*
X0151874Y0073098D01*
X0151755Y0073297D02*
X0140101Y0073297D01*
X0140217Y0073495D02*
X0151636Y0073495D01*
X0151751Y0073694D02*
X0140217Y0073694D01*
X0140075Y0073892D02*
X0151886Y0073892D01*
X0152022Y0074091D02*
X0139932Y0074091D01*
X0139790Y0074289D02*
X0152157Y0074289D01*
X0152293Y0074488D02*
X0139647Y0074488D01*
X0139505Y0074686D02*
X0152429Y0074686D01*
X0152564Y0074885D02*
X0139362Y0074885D01*
X0139220Y0075083D02*
X0152700Y0075083D01*
X0152835Y0075282D02*
X0139077Y0075282D01*
X0138934Y0075480D02*
X0152971Y0075480D01*
X0152909Y0075679D02*
X0149450Y0075679D01*
X0149396Y0075679D02*
X0138970Y0075679D01*
X0139129Y0075877D02*
X0142342Y0075877D01*
X0142061Y0076076D02*
X0139291Y0076076D01*
X0139489Y0076274D02*
X0141780Y0076274D01*
X0141500Y0076473D02*
X0139688Y0076473D01*
X0139902Y0076671D02*
X0141219Y0076671D01*
X0140938Y0076870D02*
X0140129Y0076870D01*
X0140396Y0077068D02*
X0140658Y0077068D01*
X0142875Y0075877D02*
X0149048Y0075877D01*
X0148690Y0076076D02*
X0143284Y0076076D01*
X0143730Y0076274D02*
X0148187Y0076274D01*
X0147592Y0076473D02*
X0144378Y0076473D01*
X0144415Y0076671D02*
X0147450Y0076671D01*
X0147416Y0076870D02*
X0144451Y0076870D01*
X0144488Y0077068D02*
X0147383Y0077068D01*
X0147350Y0077267D02*
X0144524Y0077267D01*
X0144561Y0077465D02*
X0147317Y0077465D01*
X0147284Y0077664D02*
X0144597Y0077664D01*
X0144634Y0077862D02*
X0147251Y0077862D01*
X0147218Y0078061D02*
X0144670Y0078061D01*
X0144706Y0078259D02*
X0147185Y0078259D01*
X0147152Y0078458D02*
X0144743Y0078458D01*
X0144779Y0078657D02*
X0147119Y0078657D01*
X0147086Y0078855D02*
X0144816Y0078855D01*
X0149724Y0075877D02*
X0152718Y0075877D01*
X0152541Y0076076D02*
X0149998Y0076076D01*
X0150272Y0076274D02*
X0152363Y0076274D01*
X0152165Y0076473D02*
X0150545Y0076473D01*
X0150819Y0076671D02*
X0151966Y0076671D01*
X0151737Y0076870D02*
X0151093Y0076870D01*
X0151367Y0077068D02*
X0151482Y0077068D01*
M02*
