G75*
%MOIN*%
%OFA0B0*%
%FSLAX25Y25*%
%IPPOS*%
%LPD*%
%AMOC8*
5,1,8,0,0,1.08239X$1,22.5*
%
%ADD10C,0.00200*%
%ADD11C,0.00300*%
D10*
X0007212Y0103271D02*
X0007701Y0103271D01*
X0007457Y0103271D02*
X0007457Y0105471D01*
X0007701Y0105471D02*
X0007212Y0105471D01*
X0008573Y0104860D02*
X0008573Y0103882D01*
X0008574Y0103882D02*
X0008576Y0103834D01*
X0008582Y0103786D01*
X0008591Y0103739D01*
X0008604Y0103693D01*
X0008621Y0103648D01*
X0008641Y0103605D01*
X0008664Y0103563D01*
X0008691Y0103523D01*
X0008720Y0103485D01*
X0008753Y0103450D01*
X0008788Y0103417D01*
X0008826Y0103388D01*
X0008866Y0103361D01*
X0008908Y0103338D01*
X0008951Y0103318D01*
X0008996Y0103301D01*
X0009042Y0103288D01*
X0009089Y0103279D01*
X0009137Y0103273D01*
X0009185Y0103271D01*
X0009233Y0103273D01*
X0009281Y0103279D01*
X0009328Y0103288D01*
X0009374Y0103301D01*
X0009419Y0103318D01*
X0009462Y0103338D01*
X0009504Y0103361D01*
X0009544Y0103388D01*
X0009582Y0103417D01*
X0009617Y0103450D01*
X0009650Y0103485D01*
X0009679Y0103523D01*
X0009706Y0103563D01*
X0009729Y0103605D01*
X0009749Y0103648D01*
X0009766Y0103693D01*
X0009779Y0103739D01*
X0009788Y0103786D01*
X0009794Y0103834D01*
X0009796Y0103882D01*
X0009796Y0104860D01*
X0009794Y0104908D01*
X0009788Y0104956D01*
X0009779Y0105003D01*
X0009766Y0105049D01*
X0009749Y0105094D01*
X0009729Y0105137D01*
X0009706Y0105179D01*
X0009679Y0105219D01*
X0009650Y0105257D01*
X0009617Y0105292D01*
X0009582Y0105325D01*
X0009544Y0105354D01*
X0009504Y0105381D01*
X0009462Y0105404D01*
X0009419Y0105424D01*
X0009374Y0105441D01*
X0009328Y0105454D01*
X0009281Y0105463D01*
X0009233Y0105469D01*
X0009185Y0105471D01*
X0009137Y0105469D01*
X0009089Y0105463D01*
X0009042Y0105454D01*
X0008996Y0105441D01*
X0008951Y0105424D01*
X0008908Y0105404D01*
X0008866Y0105381D01*
X0008826Y0105354D01*
X0008788Y0105325D01*
X0008753Y0105292D01*
X0008720Y0105257D01*
X0008691Y0105219D01*
X0008664Y0105179D01*
X0008641Y0105137D01*
X0008621Y0105094D01*
X0008604Y0105049D01*
X0008591Y0105003D01*
X0008582Y0104956D01*
X0008576Y0104908D01*
X0008574Y0104860D01*
X0010640Y0103027D02*
X0011617Y0105716D01*
X0013684Y0104371D02*
X0013682Y0104289D01*
X0013677Y0104207D01*
X0013667Y0104125D01*
X0013654Y0104044D01*
X0013638Y0103963D01*
X0013617Y0103884D01*
X0013593Y0103805D01*
X0013566Y0103727D01*
X0013535Y0103651D01*
X0013501Y0103577D01*
X0013486Y0103540D01*
X0013468Y0103504D01*
X0013447Y0103470D01*
X0013423Y0103438D01*
X0013396Y0103408D01*
X0013367Y0103381D01*
X0013336Y0103356D01*
X0013302Y0103334D01*
X0013267Y0103316D01*
X0013230Y0103300D01*
X0013192Y0103288D01*
X0013153Y0103279D01*
X0013113Y0103274D01*
X0013073Y0103272D01*
X0013033Y0103274D01*
X0012993Y0103279D01*
X0012954Y0103288D01*
X0012916Y0103300D01*
X0012879Y0103316D01*
X0012844Y0103334D01*
X0012810Y0103356D01*
X0012779Y0103381D01*
X0012750Y0103408D01*
X0012723Y0103438D01*
X0012699Y0103470D01*
X0012678Y0103504D01*
X0012660Y0103540D01*
X0012645Y0103577D01*
X0012584Y0103760D02*
X0013561Y0104982D01*
X0013501Y0105166D02*
X0013486Y0105203D01*
X0013468Y0105239D01*
X0013447Y0105273D01*
X0013423Y0105305D01*
X0013396Y0105335D01*
X0013367Y0105362D01*
X0013336Y0105387D01*
X0013302Y0105409D01*
X0013267Y0105427D01*
X0013230Y0105443D01*
X0013192Y0105455D01*
X0013153Y0105464D01*
X0013113Y0105469D01*
X0013073Y0105471D01*
X0013033Y0105469D01*
X0012993Y0105464D01*
X0012954Y0105455D01*
X0012916Y0105443D01*
X0012879Y0105427D01*
X0012844Y0105409D01*
X0012810Y0105387D01*
X0012779Y0105362D01*
X0012750Y0105335D01*
X0012723Y0105305D01*
X0012699Y0105273D01*
X0012678Y0105239D01*
X0012660Y0105203D01*
X0012645Y0105166D01*
X0013501Y0105165D02*
X0013535Y0105091D01*
X0013566Y0105015D01*
X0013593Y0104937D01*
X0013617Y0104858D01*
X0013638Y0104779D01*
X0013654Y0104698D01*
X0013667Y0104617D01*
X0013677Y0104535D01*
X0013682Y0104453D01*
X0013684Y0104371D01*
X0012461Y0104371D02*
X0012463Y0104453D01*
X0012468Y0104535D01*
X0012478Y0104617D01*
X0012491Y0104698D01*
X0012507Y0104779D01*
X0012528Y0104858D01*
X0012552Y0104937D01*
X0012579Y0105015D01*
X0012610Y0105091D01*
X0012644Y0105165D01*
X0012461Y0104371D02*
X0012463Y0104289D01*
X0012468Y0104207D01*
X0012478Y0104125D01*
X0012491Y0104044D01*
X0012507Y0103963D01*
X0012528Y0103884D01*
X0012552Y0103805D01*
X0012579Y0103727D01*
X0012610Y0103651D01*
X0012644Y0103577D01*
X0012608Y0110635D02*
X0013830Y0110635D01*
X0013219Y0110635D02*
X0013219Y0112835D01*
X0012608Y0112346D01*
X0011764Y0113080D02*
X0010786Y0110391D01*
X0009942Y0111246D02*
X0009942Y0112224D01*
X0009940Y0112272D01*
X0009934Y0112320D01*
X0009925Y0112367D01*
X0009912Y0112413D01*
X0009895Y0112458D01*
X0009875Y0112501D01*
X0009852Y0112543D01*
X0009825Y0112583D01*
X0009796Y0112621D01*
X0009763Y0112656D01*
X0009728Y0112689D01*
X0009690Y0112718D01*
X0009650Y0112745D01*
X0009608Y0112768D01*
X0009565Y0112788D01*
X0009520Y0112805D01*
X0009474Y0112818D01*
X0009427Y0112827D01*
X0009379Y0112833D01*
X0009331Y0112835D01*
X0009283Y0112833D01*
X0009235Y0112827D01*
X0009188Y0112818D01*
X0009142Y0112805D01*
X0009097Y0112788D01*
X0009054Y0112768D01*
X0009012Y0112745D01*
X0008972Y0112718D01*
X0008934Y0112689D01*
X0008899Y0112656D01*
X0008866Y0112621D01*
X0008837Y0112583D01*
X0008810Y0112543D01*
X0008787Y0112501D01*
X0008767Y0112458D01*
X0008750Y0112413D01*
X0008737Y0112367D01*
X0008728Y0112320D01*
X0008722Y0112272D01*
X0008720Y0112224D01*
X0008720Y0111246D01*
X0008722Y0111198D01*
X0008728Y0111150D01*
X0008737Y0111103D01*
X0008750Y0111057D01*
X0008767Y0111012D01*
X0008787Y0110969D01*
X0008810Y0110927D01*
X0008837Y0110887D01*
X0008866Y0110849D01*
X0008899Y0110814D01*
X0008934Y0110781D01*
X0008972Y0110752D01*
X0009012Y0110725D01*
X0009054Y0110702D01*
X0009097Y0110682D01*
X0009142Y0110665D01*
X0009188Y0110652D01*
X0009235Y0110643D01*
X0009283Y0110637D01*
X0009331Y0110635D01*
X0009379Y0110637D01*
X0009427Y0110643D01*
X0009474Y0110652D01*
X0009520Y0110665D01*
X0009565Y0110682D01*
X0009608Y0110702D01*
X0009650Y0110725D01*
X0009690Y0110752D01*
X0009728Y0110781D01*
X0009763Y0110814D01*
X0009796Y0110849D01*
X0009825Y0110887D01*
X0009852Y0110927D01*
X0009875Y0110969D01*
X0009895Y0111012D01*
X0009912Y0111057D01*
X0009925Y0111103D01*
X0009934Y0111150D01*
X0009940Y0111198D01*
X0009942Y0111246D01*
X0007847Y0110635D02*
X0007358Y0110635D01*
X0007603Y0110635D02*
X0007603Y0112835D01*
X0007847Y0112835D02*
X0007358Y0112835D01*
X0007358Y0116187D02*
X0007847Y0116187D01*
X0007603Y0116187D02*
X0007603Y0118387D01*
X0007847Y0118387D02*
X0007358Y0118387D01*
X0008720Y0117776D02*
X0008720Y0116798D01*
X0008722Y0116750D01*
X0008728Y0116702D01*
X0008737Y0116655D01*
X0008750Y0116609D01*
X0008767Y0116564D01*
X0008787Y0116521D01*
X0008810Y0116479D01*
X0008837Y0116439D01*
X0008866Y0116401D01*
X0008899Y0116366D01*
X0008934Y0116333D01*
X0008972Y0116304D01*
X0009012Y0116277D01*
X0009054Y0116254D01*
X0009097Y0116234D01*
X0009142Y0116217D01*
X0009188Y0116204D01*
X0009235Y0116195D01*
X0009283Y0116189D01*
X0009331Y0116187D01*
X0009379Y0116189D01*
X0009427Y0116195D01*
X0009474Y0116204D01*
X0009520Y0116217D01*
X0009565Y0116234D01*
X0009608Y0116254D01*
X0009650Y0116277D01*
X0009690Y0116304D01*
X0009728Y0116333D01*
X0009763Y0116366D01*
X0009796Y0116401D01*
X0009825Y0116439D01*
X0009852Y0116479D01*
X0009875Y0116521D01*
X0009895Y0116564D01*
X0009912Y0116609D01*
X0009925Y0116655D01*
X0009934Y0116702D01*
X0009940Y0116750D01*
X0009942Y0116798D01*
X0009942Y0117776D01*
X0009940Y0117824D01*
X0009934Y0117872D01*
X0009925Y0117919D01*
X0009912Y0117965D01*
X0009895Y0118010D01*
X0009875Y0118053D01*
X0009852Y0118095D01*
X0009825Y0118135D01*
X0009796Y0118173D01*
X0009763Y0118208D01*
X0009728Y0118241D01*
X0009690Y0118270D01*
X0009650Y0118297D01*
X0009608Y0118320D01*
X0009565Y0118340D01*
X0009520Y0118357D01*
X0009474Y0118370D01*
X0009427Y0118379D01*
X0009379Y0118385D01*
X0009331Y0118387D01*
X0009283Y0118385D01*
X0009235Y0118379D01*
X0009188Y0118370D01*
X0009142Y0118357D01*
X0009097Y0118340D01*
X0009054Y0118320D01*
X0009012Y0118297D01*
X0008972Y0118270D01*
X0008934Y0118241D01*
X0008899Y0118208D01*
X0008866Y0118173D01*
X0008837Y0118135D01*
X0008810Y0118095D01*
X0008787Y0118053D01*
X0008767Y0118010D01*
X0008750Y0117965D01*
X0008737Y0117919D01*
X0008728Y0117872D01*
X0008722Y0117824D01*
X0008720Y0117776D01*
X0010786Y0115943D02*
X0011764Y0118632D01*
X0013830Y0117837D02*
X0013828Y0117789D01*
X0013822Y0117742D01*
X0013813Y0117695D01*
X0013799Y0117649D01*
X0013782Y0117604D01*
X0013762Y0117561D01*
X0013738Y0117520D01*
X0013710Y0117480D01*
X0013680Y0117443D01*
X0013647Y0117409D01*
X0013647Y0117410D02*
X0012608Y0116187D01*
X0013830Y0116187D01*
X0012607Y0117899D02*
X0012625Y0117948D01*
X0012647Y0117996D01*
X0012672Y0118042D01*
X0012700Y0118085D01*
X0012732Y0118127D01*
X0012766Y0118167D01*
X0012803Y0118203D01*
X0012843Y0118237D01*
X0012886Y0118268D01*
X0012930Y0118295D01*
X0012976Y0118319D01*
X0013024Y0118340D01*
X0013074Y0118357D01*
X0013124Y0118371D01*
X0013176Y0118380D01*
X0013228Y0118386D01*
X0013280Y0118388D01*
X0013280Y0118387D02*
X0013325Y0118385D01*
X0013371Y0118379D01*
X0013415Y0118370D01*
X0013459Y0118357D01*
X0013501Y0118341D01*
X0013542Y0118321D01*
X0013581Y0118297D01*
X0013618Y0118271D01*
X0013653Y0118242D01*
X0013685Y0118210D01*
X0013714Y0118175D01*
X0013740Y0118138D01*
X0013764Y0118099D01*
X0013784Y0118058D01*
X0013800Y0118016D01*
X0013813Y0117972D01*
X0013822Y0117928D01*
X0013828Y0117882D01*
X0013830Y0117837D01*
X0013134Y0121302D02*
X0012523Y0121302D01*
X0013134Y0121302D02*
X0013182Y0121304D01*
X0013230Y0121310D01*
X0013277Y0121319D01*
X0013323Y0121332D01*
X0013368Y0121349D01*
X0013411Y0121369D01*
X0013453Y0121392D01*
X0013493Y0121419D01*
X0013531Y0121448D01*
X0013566Y0121481D01*
X0013599Y0121516D01*
X0013628Y0121554D01*
X0013655Y0121594D01*
X0013678Y0121636D01*
X0013698Y0121679D01*
X0013715Y0121724D01*
X0013728Y0121770D01*
X0013737Y0121817D01*
X0013743Y0121865D01*
X0013745Y0121913D01*
X0013743Y0121961D01*
X0013737Y0122009D01*
X0013728Y0122056D01*
X0013715Y0122102D01*
X0013698Y0122147D01*
X0013678Y0122190D01*
X0013655Y0122232D01*
X0013628Y0122272D01*
X0013599Y0122310D01*
X0013566Y0122345D01*
X0013531Y0122378D01*
X0013493Y0122407D01*
X0013453Y0122434D01*
X0013411Y0122457D01*
X0013368Y0122477D01*
X0013323Y0122494D01*
X0013277Y0122507D01*
X0013230Y0122516D01*
X0013182Y0122522D01*
X0013134Y0122524D01*
X0013256Y0122524D02*
X0012767Y0122524D01*
X0013256Y0122524D02*
X0013299Y0122526D01*
X0013341Y0122531D01*
X0013383Y0122541D01*
X0013423Y0122553D01*
X0013463Y0122570D01*
X0013501Y0122590D01*
X0013536Y0122612D01*
X0013570Y0122638D01*
X0013602Y0122667D01*
X0013631Y0122699D01*
X0013657Y0122733D01*
X0013679Y0122769D01*
X0013699Y0122806D01*
X0013716Y0122846D01*
X0013728Y0122886D01*
X0013738Y0122928D01*
X0013743Y0122970D01*
X0013745Y0123013D01*
X0013743Y0123056D01*
X0013738Y0123098D01*
X0013728Y0123140D01*
X0013716Y0123180D01*
X0013699Y0123220D01*
X0013679Y0123258D01*
X0013657Y0123293D01*
X0013631Y0123327D01*
X0013602Y0123359D01*
X0013570Y0123388D01*
X0013536Y0123414D01*
X0013501Y0123436D01*
X0013463Y0123456D01*
X0013423Y0123473D01*
X0013383Y0123485D01*
X0013341Y0123495D01*
X0013299Y0123500D01*
X0013256Y0123502D01*
X0012523Y0123502D01*
X0011679Y0123747D02*
X0010701Y0121058D01*
X0009857Y0121913D02*
X0009857Y0122891D01*
X0009855Y0122939D01*
X0009849Y0122987D01*
X0009840Y0123034D01*
X0009827Y0123080D01*
X0009810Y0123125D01*
X0009790Y0123168D01*
X0009767Y0123210D01*
X0009740Y0123250D01*
X0009711Y0123288D01*
X0009678Y0123323D01*
X0009643Y0123356D01*
X0009605Y0123385D01*
X0009565Y0123412D01*
X0009523Y0123435D01*
X0009480Y0123455D01*
X0009435Y0123472D01*
X0009389Y0123485D01*
X0009342Y0123494D01*
X0009294Y0123500D01*
X0009246Y0123502D01*
X0009198Y0123500D01*
X0009150Y0123494D01*
X0009103Y0123485D01*
X0009057Y0123472D01*
X0009012Y0123455D01*
X0008969Y0123435D01*
X0008927Y0123412D01*
X0008887Y0123385D01*
X0008849Y0123356D01*
X0008814Y0123323D01*
X0008781Y0123288D01*
X0008752Y0123250D01*
X0008725Y0123210D01*
X0008702Y0123168D01*
X0008682Y0123125D01*
X0008665Y0123080D01*
X0008652Y0123034D01*
X0008643Y0122987D01*
X0008637Y0122939D01*
X0008635Y0122891D01*
X0008635Y0121913D01*
X0008637Y0121865D01*
X0008643Y0121817D01*
X0008652Y0121770D01*
X0008665Y0121724D01*
X0008682Y0121679D01*
X0008702Y0121636D01*
X0008725Y0121594D01*
X0008752Y0121554D01*
X0008781Y0121516D01*
X0008814Y0121481D01*
X0008849Y0121448D01*
X0008887Y0121419D01*
X0008927Y0121392D01*
X0008969Y0121369D01*
X0009012Y0121349D01*
X0009057Y0121332D01*
X0009103Y0121319D01*
X0009150Y0121310D01*
X0009198Y0121304D01*
X0009246Y0121302D01*
X0009294Y0121304D01*
X0009342Y0121310D01*
X0009389Y0121319D01*
X0009435Y0121332D01*
X0009480Y0121349D01*
X0009523Y0121369D01*
X0009565Y0121392D01*
X0009605Y0121419D01*
X0009643Y0121448D01*
X0009678Y0121481D01*
X0009711Y0121516D01*
X0009740Y0121554D01*
X0009767Y0121594D01*
X0009790Y0121636D01*
X0009810Y0121679D01*
X0009827Y0121724D01*
X0009840Y0121770D01*
X0009849Y0121817D01*
X0009855Y0121865D01*
X0009857Y0121913D01*
X0007762Y0121302D02*
X0007273Y0121302D01*
X0007518Y0121302D02*
X0007518Y0123502D01*
X0007762Y0123502D02*
X0007273Y0123502D01*
X0007367Y0130602D02*
X0006878Y0130602D01*
X0007122Y0130602D02*
X0007122Y0132802D01*
X0006878Y0132802D02*
X0007367Y0132802D01*
X0008239Y0132190D02*
X0008239Y0131213D01*
X0008241Y0131165D01*
X0008247Y0131117D01*
X0008256Y0131070D01*
X0008269Y0131024D01*
X0008286Y0130979D01*
X0008306Y0130936D01*
X0008329Y0130894D01*
X0008356Y0130854D01*
X0008385Y0130816D01*
X0008418Y0130781D01*
X0008453Y0130748D01*
X0008491Y0130719D01*
X0008531Y0130692D01*
X0008573Y0130669D01*
X0008616Y0130649D01*
X0008661Y0130632D01*
X0008707Y0130619D01*
X0008754Y0130610D01*
X0008802Y0130604D01*
X0008850Y0130602D01*
X0008898Y0130604D01*
X0008946Y0130610D01*
X0008993Y0130619D01*
X0009039Y0130632D01*
X0009084Y0130649D01*
X0009127Y0130669D01*
X0009169Y0130692D01*
X0009209Y0130719D01*
X0009247Y0130748D01*
X0009282Y0130781D01*
X0009315Y0130816D01*
X0009344Y0130854D01*
X0009371Y0130894D01*
X0009394Y0130936D01*
X0009414Y0130979D01*
X0009431Y0131024D01*
X0009444Y0131070D01*
X0009453Y0131117D01*
X0009459Y0131165D01*
X0009461Y0131213D01*
X0009461Y0132190D01*
X0009459Y0132238D01*
X0009453Y0132286D01*
X0009444Y0132333D01*
X0009431Y0132379D01*
X0009414Y0132424D01*
X0009394Y0132467D01*
X0009371Y0132509D01*
X0009344Y0132549D01*
X0009315Y0132587D01*
X0009282Y0132622D01*
X0009247Y0132655D01*
X0009209Y0132684D01*
X0009169Y0132711D01*
X0009127Y0132734D01*
X0009084Y0132754D01*
X0009039Y0132771D01*
X0008993Y0132784D01*
X0008946Y0132793D01*
X0008898Y0132799D01*
X0008850Y0132801D01*
X0008802Y0132799D01*
X0008754Y0132793D01*
X0008707Y0132784D01*
X0008661Y0132771D01*
X0008616Y0132754D01*
X0008573Y0132734D01*
X0008531Y0132711D01*
X0008491Y0132684D01*
X0008453Y0132655D01*
X0008418Y0132622D01*
X0008385Y0132587D01*
X0008356Y0132549D01*
X0008329Y0132509D01*
X0008306Y0132467D01*
X0008286Y0132424D01*
X0008269Y0132379D01*
X0008256Y0132333D01*
X0008247Y0132286D01*
X0008241Y0132238D01*
X0008239Y0132190D01*
X0010305Y0130357D02*
X0011283Y0133046D01*
X0012616Y0132802D02*
X0012127Y0131090D01*
X0013349Y0131090D01*
X0012983Y0131579D02*
X0012983Y0130602D01*
X0012861Y0136154D02*
X0012127Y0136154D01*
X0012861Y0136154D02*
X0012904Y0136156D01*
X0012946Y0136161D01*
X0012988Y0136171D01*
X0013028Y0136183D01*
X0013068Y0136200D01*
X0013105Y0136220D01*
X0013141Y0136242D01*
X0013175Y0136268D01*
X0013207Y0136297D01*
X0013236Y0136329D01*
X0013262Y0136363D01*
X0013284Y0136398D01*
X0013304Y0136436D01*
X0013321Y0136476D01*
X0013333Y0136516D01*
X0013343Y0136558D01*
X0013348Y0136600D01*
X0013350Y0136643D01*
X0013349Y0136642D02*
X0013349Y0136887D01*
X0013350Y0136887D02*
X0013348Y0136930D01*
X0013343Y0136972D01*
X0013333Y0137014D01*
X0013321Y0137054D01*
X0013304Y0137094D01*
X0013284Y0137132D01*
X0013262Y0137167D01*
X0013236Y0137201D01*
X0013207Y0137233D01*
X0013175Y0137262D01*
X0013141Y0137288D01*
X0013106Y0137310D01*
X0013068Y0137330D01*
X0013028Y0137347D01*
X0012988Y0137359D01*
X0012946Y0137369D01*
X0012904Y0137374D01*
X0012861Y0137376D01*
X0012127Y0137376D01*
X0012127Y0138354D01*
X0013349Y0138354D01*
X0011283Y0138598D02*
X0010305Y0135909D01*
X0009461Y0136765D02*
X0009461Y0137742D01*
X0009459Y0137790D01*
X0009453Y0137838D01*
X0009444Y0137885D01*
X0009431Y0137931D01*
X0009414Y0137976D01*
X0009394Y0138019D01*
X0009371Y0138061D01*
X0009344Y0138101D01*
X0009315Y0138139D01*
X0009282Y0138174D01*
X0009247Y0138207D01*
X0009209Y0138236D01*
X0009169Y0138263D01*
X0009127Y0138286D01*
X0009084Y0138306D01*
X0009039Y0138323D01*
X0008993Y0138336D01*
X0008946Y0138345D01*
X0008898Y0138351D01*
X0008850Y0138353D01*
X0008802Y0138351D01*
X0008754Y0138345D01*
X0008707Y0138336D01*
X0008661Y0138323D01*
X0008616Y0138306D01*
X0008573Y0138286D01*
X0008531Y0138263D01*
X0008491Y0138236D01*
X0008453Y0138207D01*
X0008418Y0138174D01*
X0008385Y0138139D01*
X0008356Y0138101D01*
X0008329Y0138061D01*
X0008306Y0138019D01*
X0008286Y0137976D01*
X0008269Y0137931D01*
X0008256Y0137885D01*
X0008247Y0137838D01*
X0008241Y0137790D01*
X0008239Y0137742D01*
X0008239Y0136765D01*
X0008241Y0136717D01*
X0008247Y0136669D01*
X0008256Y0136622D01*
X0008269Y0136576D01*
X0008286Y0136531D01*
X0008306Y0136488D01*
X0008329Y0136446D01*
X0008356Y0136406D01*
X0008385Y0136368D01*
X0008418Y0136333D01*
X0008453Y0136300D01*
X0008491Y0136271D01*
X0008531Y0136244D01*
X0008573Y0136221D01*
X0008616Y0136201D01*
X0008661Y0136184D01*
X0008707Y0136171D01*
X0008754Y0136162D01*
X0008802Y0136156D01*
X0008850Y0136154D01*
X0008898Y0136156D01*
X0008946Y0136162D01*
X0008993Y0136171D01*
X0009039Y0136184D01*
X0009084Y0136201D01*
X0009127Y0136221D01*
X0009169Y0136244D01*
X0009209Y0136271D01*
X0009247Y0136300D01*
X0009282Y0136333D01*
X0009315Y0136368D01*
X0009344Y0136406D01*
X0009371Y0136446D01*
X0009394Y0136488D01*
X0009414Y0136531D01*
X0009431Y0136576D01*
X0009444Y0136622D01*
X0009453Y0136669D01*
X0009459Y0136717D01*
X0009461Y0136765D01*
X0007367Y0136154D02*
X0006878Y0136154D01*
X0007122Y0136154D02*
X0007122Y0138354D01*
X0006878Y0138354D02*
X0007367Y0138354D01*
X0010221Y0141024D02*
X0011198Y0143713D01*
X0012042Y0142491D02*
X0012042Y0141880D01*
X0012042Y0142491D02*
X0012776Y0142491D01*
X0012042Y0142491D02*
X0012044Y0142552D01*
X0012050Y0142614D01*
X0012059Y0142674D01*
X0012073Y0142734D01*
X0012090Y0142793D01*
X0012111Y0142851D01*
X0012135Y0142907D01*
X0012163Y0142962D01*
X0012194Y0143015D01*
X0012229Y0143066D01*
X0012266Y0143114D01*
X0012307Y0143160D01*
X0012351Y0143204D01*
X0012397Y0143245D01*
X0012445Y0143282D01*
X0012496Y0143317D01*
X0012549Y0143348D01*
X0012604Y0143376D01*
X0012660Y0143400D01*
X0012718Y0143421D01*
X0012777Y0143438D01*
X0012837Y0143452D01*
X0012897Y0143461D01*
X0012959Y0143467D01*
X0013020Y0143469D01*
X0012776Y0142491D02*
X0012819Y0142489D01*
X0012861Y0142484D01*
X0012903Y0142474D01*
X0012943Y0142462D01*
X0012983Y0142445D01*
X0013021Y0142425D01*
X0013056Y0142403D01*
X0013090Y0142377D01*
X0013122Y0142348D01*
X0013151Y0142316D01*
X0013177Y0142282D01*
X0013199Y0142247D01*
X0013219Y0142209D01*
X0013236Y0142169D01*
X0013248Y0142129D01*
X0013258Y0142087D01*
X0013263Y0142045D01*
X0013265Y0142002D01*
X0013265Y0141880D01*
X0013264Y0141880D02*
X0013262Y0141832D01*
X0013256Y0141784D01*
X0013247Y0141737D01*
X0013234Y0141691D01*
X0013217Y0141646D01*
X0013197Y0141603D01*
X0013174Y0141561D01*
X0013147Y0141521D01*
X0013118Y0141483D01*
X0013085Y0141448D01*
X0013050Y0141415D01*
X0013012Y0141386D01*
X0012972Y0141359D01*
X0012930Y0141336D01*
X0012887Y0141316D01*
X0012842Y0141299D01*
X0012796Y0141286D01*
X0012749Y0141277D01*
X0012701Y0141271D01*
X0012653Y0141269D01*
X0012605Y0141271D01*
X0012557Y0141277D01*
X0012510Y0141286D01*
X0012464Y0141299D01*
X0012419Y0141316D01*
X0012376Y0141336D01*
X0012334Y0141359D01*
X0012294Y0141386D01*
X0012256Y0141415D01*
X0012221Y0141448D01*
X0012188Y0141483D01*
X0012159Y0141521D01*
X0012132Y0141561D01*
X0012109Y0141603D01*
X0012089Y0141646D01*
X0012072Y0141691D01*
X0012059Y0141737D01*
X0012050Y0141784D01*
X0012044Y0141832D01*
X0012042Y0141880D01*
X0009377Y0141880D02*
X0009377Y0142857D01*
X0009376Y0142857D02*
X0009374Y0142905D01*
X0009368Y0142953D01*
X0009359Y0143000D01*
X0009346Y0143046D01*
X0009329Y0143091D01*
X0009309Y0143134D01*
X0009286Y0143176D01*
X0009259Y0143216D01*
X0009230Y0143254D01*
X0009197Y0143289D01*
X0009162Y0143322D01*
X0009124Y0143351D01*
X0009084Y0143378D01*
X0009042Y0143401D01*
X0008999Y0143421D01*
X0008954Y0143438D01*
X0008908Y0143451D01*
X0008861Y0143460D01*
X0008813Y0143466D01*
X0008765Y0143468D01*
X0008717Y0143466D01*
X0008669Y0143460D01*
X0008622Y0143451D01*
X0008576Y0143438D01*
X0008531Y0143421D01*
X0008488Y0143401D01*
X0008446Y0143378D01*
X0008406Y0143351D01*
X0008368Y0143322D01*
X0008333Y0143289D01*
X0008300Y0143254D01*
X0008271Y0143216D01*
X0008244Y0143176D01*
X0008221Y0143134D01*
X0008201Y0143091D01*
X0008184Y0143046D01*
X0008171Y0143000D01*
X0008162Y0142953D01*
X0008156Y0142905D01*
X0008154Y0142857D01*
X0008154Y0141880D01*
X0008156Y0141832D01*
X0008162Y0141784D01*
X0008171Y0141737D01*
X0008184Y0141691D01*
X0008201Y0141646D01*
X0008221Y0141603D01*
X0008244Y0141561D01*
X0008271Y0141521D01*
X0008300Y0141483D01*
X0008333Y0141448D01*
X0008368Y0141415D01*
X0008406Y0141386D01*
X0008446Y0141359D01*
X0008488Y0141336D01*
X0008531Y0141316D01*
X0008576Y0141299D01*
X0008622Y0141286D01*
X0008669Y0141277D01*
X0008717Y0141271D01*
X0008765Y0141269D01*
X0008813Y0141271D01*
X0008861Y0141277D01*
X0008908Y0141286D01*
X0008954Y0141299D01*
X0008999Y0141316D01*
X0009042Y0141336D01*
X0009084Y0141359D01*
X0009124Y0141386D01*
X0009162Y0141415D01*
X0009197Y0141448D01*
X0009230Y0141483D01*
X0009259Y0141521D01*
X0009286Y0141561D01*
X0009309Y0141603D01*
X0009329Y0141646D01*
X0009346Y0141691D01*
X0009359Y0141737D01*
X0009368Y0141784D01*
X0009374Y0141832D01*
X0009376Y0141880D01*
X0007282Y0141268D02*
X0006793Y0141268D01*
X0007037Y0141268D02*
X0007037Y0143468D01*
X0006793Y0143468D02*
X0007282Y0143468D01*
X0007282Y0146821D02*
X0006793Y0146821D01*
X0007037Y0146821D02*
X0007037Y0149021D01*
X0006793Y0149021D02*
X0007282Y0149021D01*
X0008154Y0148409D02*
X0008154Y0147432D01*
X0008156Y0147384D01*
X0008162Y0147336D01*
X0008171Y0147289D01*
X0008184Y0147243D01*
X0008201Y0147198D01*
X0008221Y0147155D01*
X0008244Y0147113D01*
X0008271Y0147073D01*
X0008300Y0147035D01*
X0008333Y0147000D01*
X0008368Y0146967D01*
X0008406Y0146938D01*
X0008446Y0146911D01*
X0008488Y0146888D01*
X0008531Y0146868D01*
X0008576Y0146851D01*
X0008622Y0146838D01*
X0008669Y0146829D01*
X0008717Y0146823D01*
X0008765Y0146821D01*
X0008813Y0146823D01*
X0008861Y0146829D01*
X0008908Y0146838D01*
X0008954Y0146851D01*
X0008999Y0146868D01*
X0009042Y0146888D01*
X0009084Y0146911D01*
X0009124Y0146938D01*
X0009162Y0146967D01*
X0009197Y0147000D01*
X0009230Y0147035D01*
X0009259Y0147073D01*
X0009286Y0147113D01*
X0009309Y0147155D01*
X0009329Y0147198D01*
X0009346Y0147243D01*
X0009359Y0147289D01*
X0009368Y0147336D01*
X0009374Y0147384D01*
X0009376Y0147432D01*
X0009377Y0147432D02*
X0009377Y0148409D01*
X0009376Y0148409D02*
X0009374Y0148457D01*
X0009368Y0148505D01*
X0009359Y0148552D01*
X0009346Y0148598D01*
X0009329Y0148643D01*
X0009309Y0148686D01*
X0009286Y0148728D01*
X0009259Y0148768D01*
X0009230Y0148806D01*
X0009197Y0148841D01*
X0009162Y0148874D01*
X0009124Y0148903D01*
X0009084Y0148930D01*
X0009042Y0148953D01*
X0008999Y0148973D01*
X0008954Y0148990D01*
X0008908Y0149003D01*
X0008861Y0149012D01*
X0008813Y0149018D01*
X0008765Y0149020D01*
X0008717Y0149018D01*
X0008669Y0149012D01*
X0008622Y0149003D01*
X0008576Y0148990D01*
X0008531Y0148973D01*
X0008488Y0148953D01*
X0008446Y0148930D01*
X0008406Y0148903D01*
X0008368Y0148874D01*
X0008333Y0148841D01*
X0008300Y0148806D01*
X0008271Y0148768D01*
X0008244Y0148728D01*
X0008221Y0148686D01*
X0008201Y0148643D01*
X0008184Y0148598D01*
X0008171Y0148552D01*
X0008162Y0148505D01*
X0008156Y0148457D01*
X0008154Y0148409D01*
X0010221Y0146576D02*
X0011198Y0149265D01*
X0012042Y0149021D02*
X0013265Y0149021D01*
X0012653Y0146821D01*
X0012042Y0148776D02*
X0012042Y0149021D01*
X0104756Y0145114D02*
X0104756Y0142914D01*
X0104756Y0143891D02*
X0105367Y0143891D01*
X0105489Y0143891D02*
X0105978Y0142914D01*
X0106978Y0142914D02*
X0106978Y0145114D01*
X0107955Y0145114D01*
X0107711Y0144136D02*
X0106978Y0144136D01*
X0106978Y0142914D02*
X0107955Y0142914D01*
X0107701Y0139999D02*
X0106723Y0139999D01*
X0106723Y0137799D01*
X0107701Y0137799D01*
X0107457Y0139021D02*
X0106723Y0139021D01*
X0105818Y0139999D02*
X0105329Y0139999D01*
X0105286Y0139997D01*
X0105244Y0139992D01*
X0105202Y0139982D01*
X0105162Y0139970D01*
X0105122Y0139953D01*
X0105084Y0139933D01*
X0105049Y0139911D01*
X0105015Y0139885D01*
X0104983Y0139856D01*
X0104954Y0139824D01*
X0104928Y0139790D01*
X0104906Y0139754D01*
X0104886Y0139717D01*
X0104869Y0139677D01*
X0104857Y0139637D01*
X0104847Y0139595D01*
X0104842Y0139553D01*
X0104840Y0139510D01*
X0104841Y0139510D02*
X0104841Y0138288D01*
X0104840Y0138288D02*
X0104842Y0138245D01*
X0104847Y0138203D01*
X0104857Y0138161D01*
X0104869Y0138121D01*
X0104886Y0138081D01*
X0104906Y0138044D01*
X0104928Y0138008D01*
X0104954Y0137974D01*
X0104983Y0137942D01*
X0105015Y0137913D01*
X0105049Y0137887D01*
X0105085Y0137865D01*
X0105122Y0137845D01*
X0105162Y0137828D01*
X0105202Y0137816D01*
X0105244Y0137806D01*
X0105286Y0137801D01*
X0105329Y0137799D01*
X0105818Y0137799D01*
X0105818Y0134447D02*
X0105329Y0134447D01*
X0105286Y0134445D01*
X0105244Y0134440D01*
X0105202Y0134430D01*
X0105162Y0134418D01*
X0105122Y0134401D01*
X0105084Y0134381D01*
X0105049Y0134359D01*
X0105015Y0134333D01*
X0104983Y0134304D01*
X0104954Y0134272D01*
X0104928Y0134238D01*
X0104906Y0134202D01*
X0104886Y0134165D01*
X0104869Y0134125D01*
X0104857Y0134085D01*
X0104847Y0134043D01*
X0104842Y0134001D01*
X0104840Y0133958D01*
X0104841Y0133958D02*
X0104841Y0132736D01*
X0104840Y0132736D02*
X0104842Y0132693D01*
X0104847Y0132651D01*
X0104857Y0132609D01*
X0104869Y0132569D01*
X0104886Y0132529D01*
X0104906Y0132492D01*
X0104928Y0132456D01*
X0104954Y0132422D01*
X0104983Y0132390D01*
X0105015Y0132361D01*
X0105049Y0132335D01*
X0105085Y0132313D01*
X0105122Y0132293D01*
X0105162Y0132276D01*
X0105202Y0132264D01*
X0105244Y0132254D01*
X0105286Y0132249D01*
X0105329Y0132247D01*
X0105818Y0132247D01*
X0106723Y0132247D02*
X0106723Y0134447D01*
X0108595Y0134447D02*
X0108595Y0132247D01*
X0109573Y0132247D01*
X0109329Y0133469D02*
X0108595Y0133469D01*
X0108595Y0134447D02*
X0109573Y0134447D01*
X0107701Y0132247D02*
X0106723Y0132247D01*
X0107244Y0129412D02*
X0107244Y0127212D01*
X0108221Y0127212D01*
X0109116Y0127212D02*
X0109116Y0129412D01*
X0110093Y0129412D01*
X0109849Y0128434D02*
X0109116Y0128434D01*
X0109116Y0127212D02*
X0110093Y0127212D01*
X0108754Y0123860D02*
X0107776Y0123860D01*
X0107776Y0121660D01*
X0108754Y0121660D01*
X0108509Y0122882D02*
X0107776Y0122882D01*
X0106841Y0123860D02*
X0106352Y0121660D01*
X0105863Y0123127D01*
X0105374Y0121660D01*
X0104885Y0123860D01*
X0104885Y0127212D02*
X0105618Y0129412D01*
X0106352Y0127212D01*
X0106168Y0127762D02*
X0105068Y0127762D01*
X0104885Y0118860D02*
X0105374Y0116660D01*
X0105863Y0118127D01*
X0106352Y0116660D01*
X0106841Y0118860D01*
X0107804Y0118860D02*
X0108416Y0118860D01*
X0108464Y0118858D01*
X0108512Y0118852D01*
X0108559Y0118843D01*
X0108605Y0118830D01*
X0108650Y0118813D01*
X0108693Y0118793D01*
X0108735Y0118770D01*
X0108775Y0118743D01*
X0108813Y0118714D01*
X0108848Y0118681D01*
X0108881Y0118646D01*
X0108910Y0118608D01*
X0108937Y0118568D01*
X0108960Y0118526D01*
X0108980Y0118483D01*
X0108997Y0118438D01*
X0109010Y0118392D01*
X0109019Y0118345D01*
X0109025Y0118297D01*
X0109027Y0118249D01*
X0109025Y0118201D01*
X0109019Y0118153D01*
X0109010Y0118106D01*
X0108997Y0118060D01*
X0108980Y0118015D01*
X0108960Y0117972D01*
X0108937Y0117930D01*
X0108910Y0117890D01*
X0108881Y0117852D01*
X0108848Y0117817D01*
X0108813Y0117784D01*
X0108775Y0117755D01*
X0108735Y0117728D01*
X0108693Y0117705D01*
X0108650Y0117685D01*
X0108605Y0117668D01*
X0108559Y0117655D01*
X0108512Y0117646D01*
X0108464Y0117640D01*
X0108416Y0117638D01*
X0107804Y0117638D01*
X0107804Y0116660D02*
X0107804Y0118860D01*
X0105367Y0143891D02*
X0105415Y0143893D01*
X0105463Y0143899D01*
X0105510Y0143908D01*
X0105556Y0143921D01*
X0105601Y0143938D01*
X0105644Y0143958D01*
X0105686Y0143981D01*
X0105726Y0144008D01*
X0105764Y0144037D01*
X0105799Y0144070D01*
X0105832Y0144105D01*
X0105861Y0144143D01*
X0105888Y0144183D01*
X0105911Y0144225D01*
X0105931Y0144268D01*
X0105948Y0144313D01*
X0105961Y0144359D01*
X0105970Y0144406D01*
X0105976Y0144454D01*
X0105978Y0144502D01*
X0105976Y0144550D01*
X0105970Y0144598D01*
X0105961Y0144645D01*
X0105948Y0144691D01*
X0105931Y0144736D01*
X0105911Y0144779D01*
X0105888Y0144821D01*
X0105861Y0144861D01*
X0105832Y0144899D01*
X0105799Y0144934D01*
X0105764Y0144967D01*
X0105726Y0144996D01*
X0105686Y0145023D01*
X0105644Y0145046D01*
X0105601Y0145066D01*
X0105556Y0145083D01*
X0105510Y0145096D01*
X0105463Y0145105D01*
X0105415Y0145111D01*
X0105367Y0145113D01*
X0105367Y0145114D02*
X0104756Y0145114D01*
X0126361Y0053958D02*
X0127094Y0053958D01*
X0126361Y0053958D02*
X0126318Y0053956D01*
X0126276Y0053951D01*
X0126234Y0053941D01*
X0126194Y0053929D01*
X0126154Y0053912D01*
X0126116Y0053892D01*
X0126081Y0053870D01*
X0126047Y0053844D01*
X0126015Y0053815D01*
X0125986Y0053783D01*
X0125960Y0053749D01*
X0125938Y0053713D01*
X0125918Y0053676D01*
X0125901Y0053636D01*
X0125889Y0053596D01*
X0125879Y0053554D01*
X0125874Y0053512D01*
X0125872Y0053469D01*
X0125872Y0052247D01*
X0125874Y0052204D01*
X0125879Y0052162D01*
X0125889Y0052120D01*
X0125901Y0052080D01*
X0125918Y0052040D01*
X0125938Y0052003D01*
X0125960Y0051967D01*
X0125986Y0051933D01*
X0126015Y0051901D01*
X0126047Y0051872D01*
X0126081Y0051846D01*
X0126117Y0051824D01*
X0126154Y0051804D01*
X0126194Y0051787D01*
X0126234Y0051775D01*
X0126276Y0051765D01*
X0126318Y0051760D01*
X0126361Y0051758D01*
X0127094Y0051758D01*
X0127094Y0052980D01*
X0126728Y0052980D01*
X0128176Y0053958D02*
X0129398Y0051758D01*
X0129398Y0053958D01*
X0130480Y0053958D02*
X0130480Y0051758D01*
X0131091Y0051758D01*
X0131139Y0051760D01*
X0131187Y0051766D01*
X0131234Y0051775D01*
X0131280Y0051788D01*
X0131325Y0051805D01*
X0131368Y0051825D01*
X0131410Y0051848D01*
X0131450Y0051875D01*
X0131488Y0051904D01*
X0131523Y0051937D01*
X0131556Y0051972D01*
X0131585Y0052010D01*
X0131612Y0052050D01*
X0131635Y0052092D01*
X0131655Y0052135D01*
X0131672Y0052180D01*
X0131685Y0052226D01*
X0131694Y0052273D01*
X0131700Y0052321D01*
X0131702Y0052369D01*
X0131702Y0053347D01*
X0131700Y0053395D01*
X0131694Y0053443D01*
X0131685Y0053490D01*
X0131672Y0053536D01*
X0131655Y0053581D01*
X0131635Y0053624D01*
X0131612Y0053666D01*
X0131585Y0053706D01*
X0131556Y0053744D01*
X0131523Y0053779D01*
X0131488Y0053812D01*
X0131450Y0053841D01*
X0131410Y0053868D01*
X0131368Y0053891D01*
X0131325Y0053911D01*
X0131280Y0053928D01*
X0131234Y0053941D01*
X0131187Y0053950D01*
X0131139Y0053956D01*
X0131091Y0053958D01*
X0130480Y0053958D01*
X0128176Y0053958D02*
X0128176Y0051758D01*
D11*
X0137257Y0133272D02*
X0137579Y0133272D01*
X0138546Y0136172D01*
X0139645Y0135930D02*
X0139806Y0135930D01*
X0139806Y0135769D01*
X0139645Y0135769D01*
X0139645Y0135930D01*
X0139645Y0134641D02*
X0139806Y0134641D01*
X0139806Y0134480D01*
X0139645Y0134480D01*
X0139645Y0134641D01*
X0137901Y0134239D02*
X0137257Y0136172D01*
X0135451Y0135850D02*
X0135500Y0135852D01*
X0135549Y0135858D01*
X0135598Y0135867D01*
X0135645Y0135880D01*
X0135692Y0135897D01*
X0135737Y0135917D01*
X0135780Y0135940D01*
X0135822Y0135967D01*
X0135861Y0135997D01*
X0135898Y0136030D01*
X0135932Y0136066D01*
X0135963Y0136104D01*
X0135992Y0136144D01*
X0136017Y0136186D01*
X0136039Y0136231D01*
X0136057Y0136276D01*
X0136072Y0136323D01*
X0136083Y0136371D01*
X0136091Y0136420D01*
X0136095Y0136469D01*
X0136095Y0136519D01*
X0136091Y0136568D01*
X0136083Y0136617D01*
X0136072Y0136665D01*
X0136057Y0136712D01*
X0136039Y0136757D01*
X0136017Y0136802D01*
X0135992Y0136844D01*
X0135963Y0136884D01*
X0135932Y0136922D01*
X0135898Y0136958D01*
X0135861Y0136991D01*
X0135822Y0137021D01*
X0135780Y0137048D01*
X0135737Y0137071D01*
X0135692Y0137091D01*
X0135645Y0137108D01*
X0135598Y0137121D01*
X0135549Y0137130D01*
X0135500Y0137136D01*
X0135451Y0137138D01*
X0135451Y0137139D02*
X0134646Y0137139D01*
X0134646Y0134239D01*
X0135451Y0134239D01*
X0135451Y0134238D02*
X0135506Y0134240D01*
X0135561Y0134246D01*
X0135615Y0134255D01*
X0135668Y0134268D01*
X0135721Y0134285D01*
X0135772Y0134305D01*
X0135822Y0134328D01*
X0135870Y0134355D01*
X0135916Y0134386D01*
X0135960Y0134419D01*
X0136001Y0134455D01*
X0136040Y0134494D01*
X0136076Y0134535D01*
X0136109Y0134579D01*
X0136140Y0134625D01*
X0136167Y0134673D01*
X0136190Y0134723D01*
X0136210Y0134774D01*
X0136227Y0134827D01*
X0136240Y0134880D01*
X0136249Y0134934D01*
X0136255Y0134989D01*
X0136257Y0135044D01*
X0136255Y0135099D01*
X0136249Y0135154D01*
X0136240Y0135208D01*
X0136227Y0135261D01*
X0136210Y0135314D01*
X0136190Y0135365D01*
X0136167Y0135415D01*
X0136140Y0135463D01*
X0136109Y0135509D01*
X0136076Y0135553D01*
X0136040Y0135594D01*
X0136001Y0135633D01*
X0135960Y0135669D01*
X0135916Y0135702D01*
X0135870Y0135733D01*
X0135822Y0135760D01*
X0135772Y0135783D01*
X0135721Y0135803D01*
X0135668Y0135820D01*
X0135615Y0135833D01*
X0135561Y0135842D01*
X0135506Y0135848D01*
X0135451Y0135850D01*
X0134646Y0135850D01*
X0142670Y0135850D02*
X0143636Y0135850D01*
X0143959Y0137139D02*
X0142670Y0137139D01*
X0142670Y0134239D01*
X0143959Y0134239D01*
X0145065Y0134722D02*
X0145065Y0137139D01*
X0146569Y0135528D02*
X0146569Y0134722D01*
X0146571Y0134680D01*
X0146576Y0134638D01*
X0146585Y0134597D01*
X0146598Y0134557D01*
X0146614Y0134518D01*
X0146634Y0134481D01*
X0146656Y0134445D01*
X0146682Y0134412D01*
X0146710Y0134380D01*
X0146742Y0134352D01*
X0146775Y0134326D01*
X0146811Y0134304D01*
X0146848Y0134284D01*
X0146887Y0134268D01*
X0146927Y0134255D01*
X0146968Y0134246D01*
X0147010Y0134241D01*
X0147052Y0134239D01*
X0147858Y0134239D01*
X0147858Y0135205D02*
X0146569Y0135205D01*
X0146569Y0135528D02*
X0146571Y0135577D01*
X0146577Y0135626D01*
X0146586Y0135675D01*
X0146599Y0135722D01*
X0146616Y0135769D01*
X0146636Y0135814D01*
X0146659Y0135857D01*
X0146686Y0135899D01*
X0146716Y0135938D01*
X0146749Y0135975D01*
X0146785Y0136009D01*
X0146823Y0136040D01*
X0146863Y0136069D01*
X0146905Y0136094D01*
X0146950Y0136116D01*
X0146995Y0136134D01*
X0147042Y0136149D01*
X0147090Y0136160D01*
X0147139Y0136168D01*
X0147188Y0136172D01*
X0147238Y0136172D01*
X0147287Y0136168D01*
X0147336Y0136160D01*
X0147384Y0136149D01*
X0147431Y0136134D01*
X0147476Y0136116D01*
X0147521Y0136094D01*
X0147563Y0136069D01*
X0147603Y0136040D01*
X0147641Y0136009D01*
X0147677Y0135975D01*
X0147710Y0135938D01*
X0147740Y0135899D01*
X0147767Y0135857D01*
X0147790Y0135814D01*
X0147810Y0135769D01*
X0147827Y0135722D01*
X0147840Y0135675D01*
X0147849Y0135626D01*
X0147855Y0135577D01*
X0147857Y0135528D01*
X0147858Y0135528D02*
X0147858Y0135205D01*
X0149222Y0134239D02*
X0149222Y0136172D01*
X0150672Y0136172D01*
X0150189Y0136172D02*
X0150189Y0134239D01*
X0151156Y0134239D02*
X0151156Y0135689D01*
X0151155Y0135689D02*
X0151153Y0135731D01*
X0151148Y0135773D01*
X0151139Y0135814D01*
X0151126Y0135854D01*
X0151110Y0135893D01*
X0151090Y0135931D01*
X0151068Y0135966D01*
X0151042Y0135999D01*
X0151014Y0136031D01*
X0150982Y0136059D01*
X0150949Y0136085D01*
X0150914Y0136107D01*
X0150876Y0136127D01*
X0150837Y0136143D01*
X0150797Y0136156D01*
X0150756Y0136165D01*
X0150714Y0136170D01*
X0150672Y0136172D01*
X0152521Y0135528D02*
X0152521Y0134722D01*
X0152523Y0134680D01*
X0152528Y0134638D01*
X0152537Y0134597D01*
X0152550Y0134557D01*
X0152566Y0134518D01*
X0152586Y0134481D01*
X0152608Y0134445D01*
X0152634Y0134412D01*
X0152662Y0134380D01*
X0152694Y0134352D01*
X0152727Y0134326D01*
X0152763Y0134304D01*
X0152800Y0134284D01*
X0152839Y0134268D01*
X0152879Y0134255D01*
X0152920Y0134246D01*
X0152962Y0134241D01*
X0153004Y0134239D01*
X0153810Y0134239D01*
X0153810Y0135205D02*
X0152521Y0135205D01*
X0152521Y0135528D02*
X0152523Y0135577D01*
X0152529Y0135626D01*
X0152538Y0135675D01*
X0152551Y0135722D01*
X0152568Y0135769D01*
X0152588Y0135814D01*
X0152611Y0135857D01*
X0152638Y0135899D01*
X0152668Y0135938D01*
X0152701Y0135975D01*
X0152737Y0136009D01*
X0152775Y0136040D01*
X0152815Y0136069D01*
X0152857Y0136094D01*
X0152902Y0136116D01*
X0152947Y0136134D01*
X0152994Y0136149D01*
X0153042Y0136160D01*
X0153091Y0136168D01*
X0153140Y0136172D01*
X0153190Y0136172D01*
X0153239Y0136168D01*
X0153288Y0136160D01*
X0153336Y0136149D01*
X0153383Y0136134D01*
X0153428Y0136116D01*
X0153473Y0136094D01*
X0153515Y0136069D01*
X0153555Y0136040D01*
X0153593Y0136009D01*
X0153629Y0135975D01*
X0153662Y0135938D01*
X0153692Y0135899D01*
X0153719Y0135857D01*
X0153742Y0135814D01*
X0153762Y0135769D01*
X0153779Y0135722D01*
X0153792Y0135675D01*
X0153801Y0135626D01*
X0153807Y0135577D01*
X0153809Y0135528D01*
X0153810Y0135528D02*
X0153810Y0135205D01*
X0155113Y0134239D02*
X0155113Y0136172D01*
X0155918Y0136172D01*
X0155960Y0136170D01*
X0156002Y0136165D01*
X0156043Y0136156D01*
X0156083Y0136143D01*
X0156122Y0136127D01*
X0156160Y0136107D01*
X0156195Y0136085D01*
X0156228Y0136059D01*
X0156260Y0136031D01*
X0156288Y0135999D01*
X0156314Y0135966D01*
X0156336Y0135931D01*
X0156356Y0135893D01*
X0156372Y0135854D01*
X0156385Y0135814D01*
X0156394Y0135773D01*
X0156399Y0135731D01*
X0156401Y0135689D01*
X0156402Y0135689D02*
X0156402Y0134239D01*
X0157779Y0134722D02*
X0157779Y0137139D01*
X0157456Y0136172D02*
X0158423Y0136172D01*
X0159559Y0136494D02*
X0160365Y0137139D01*
X0160365Y0134239D01*
X0159559Y0134239D02*
X0161171Y0134239D01*
X0162439Y0135044D02*
X0162441Y0134989D01*
X0162447Y0134934D01*
X0162456Y0134880D01*
X0162469Y0134827D01*
X0162486Y0134774D01*
X0162506Y0134723D01*
X0162529Y0134673D01*
X0162556Y0134625D01*
X0162587Y0134579D01*
X0162620Y0134535D01*
X0162656Y0134494D01*
X0162695Y0134455D01*
X0162736Y0134419D01*
X0162780Y0134386D01*
X0162826Y0134355D01*
X0162874Y0134328D01*
X0162924Y0134305D01*
X0162975Y0134285D01*
X0163028Y0134268D01*
X0163081Y0134255D01*
X0163135Y0134246D01*
X0163190Y0134240D01*
X0163245Y0134238D01*
X0163300Y0134240D01*
X0163355Y0134246D01*
X0163409Y0134255D01*
X0163462Y0134268D01*
X0163515Y0134285D01*
X0163566Y0134305D01*
X0163616Y0134328D01*
X0163664Y0134355D01*
X0163710Y0134386D01*
X0163754Y0134419D01*
X0163795Y0134455D01*
X0163834Y0134494D01*
X0163870Y0134535D01*
X0163903Y0134579D01*
X0163934Y0134625D01*
X0163961Y0134673D01*
X0163984Y0134723D01*
X0164004Y0134774D01*
X0164021Y0134827D01*
X0164034Y0134880D01*
X0164043Y0134934D01*
X0164049Y0134989D01*
X0164051Y0135044D01*
X0164049Y0135099D01*
X0164043Y0135154D01*
X0164034Y0135208D01*
X0164021Y0135261D01*
X0164004Y0135314D01*
X0163984Y0135365D01*
X0163961Y0135415D01*
X0163934Y0135463D01*
X0163903Y0135509D01*
X0163870Y0135553D01*
X0163834Y0135594D01*
X0163795Y0135633D01*
X0163754Y0135669D01*
X0163710Y0135702D01*
X0163664Y0135733D01*
X0163616Y0135760D01*
X0163566Y0135783D01*
X0163515Y0135803D01*
X0163462Y0135820D01*
X0163409Y0135833D01*
X0163355Y0135842D01*
X0163300Y0135848D01*
X0163245Y0135850D01*
X0163190Y0135848D01*
X0163135Y0135842D01*
X0163081Y0135833D01*
X0163028Y0135820D01*
X0162975Y0135803D01*
X0162924Y0135783D01*
X0162874Y0135760D01*
X0162826Y0135733D01*
X0162780Y0135702D01*
X0162736Y0135669D01*
X0162695Y0135633D01*
X0162656Y0135594D01*
X0162620Y0135553D01*
X0162587Y0135509D01*
X0162556Y0135463D01*
X0162529Y0135415D01*
X0162506Y0135365D01*
X0162486Y0135314D01*
X0162469Y0135261D01*
X0162456Y0135208D01*
X0162447Y0135154D01*
X0162441Y0135099D01*
X0162439Y0135044D01*
X0162601Y0136494D02*
X0162603Y0136445D01*
X0162609Y0136396D01*
X0162618Y0136347D01*
X0162631Y0136300D01*
X0162648Y0136253D01*
X0162668Y0136208D01*
X0162691Y0136165D01*
X0162718Y0136123D01*
X0162748Y0136084D01*
X0162781Y0136047D01*
X0162817Y0136013D01*
X0162855Y0135982D01*
X0162895Y0135953D01*
X0162937Y0135928D01*
X0162982Y0135906D01*
X0163027Y0135888D01*
X0163074Y0135873D01*
X0163122Y0135862D01*
X0163171Y0135854D01*
X0163220Y0135850D01*
X0163270Y0135850D01*
X0163319Y0135854D01*
X0163368Y0135862D01*
X0163416Y0135873D01*
X0163463Y0135888D01*
X0163508Y0135906D01*
X0163553Y0135928D01*
X0163595Y0135953D01*
X0163635Y0135982D01*
X0163673Y0136013D01*
X0163709Y0136047D01*
X0163742Y0136084D01*
X0163772Y0136123D01*
X0163799Y0136165D01*
X0163822Y0136208D01*
X0163842Y0136253D01*
X0163859Y0136300D01*
X0163872Y0136347D01*
X0163881Y0136396D01*
X0163887Y0136445D01*
X0163889Y0136494D01*
X0163887Y0136543D01*
X0163881Y0136592D01*
X0163872Y0136641D01*
X0163859Y0136688D01*
X0163842Y0136735D01*
X0163822Y0136780D01*
X0163799Y0136823D01*
X0163772Y0136865D01*
X0163742Y0136904D01*
X0163709Y0136941D01*
X0163673Y0136975D01*
X0163635Y0137006D01*
X0163595Y0137035D01*
X0163553Y0137060D01*
X0163508Y0137082D01*
X0163463Y0137100D01*
X0163416Y0137115D01*
X0163368Y0137126D01*
X0163319Y0137134D01*
X0163270Y0137138D01*
X0163220Y0137138D01*
X0163171Y0137134D01*
X0163122Y0137126D01*
X0163074Y0137115D01*
X0163027Y0137100D01*
X0162982Y0137082D01*
X0162937Y0137060D01*
X0162895Y0137035D01*
X0162855Y0137006D01*
X0162817Y0136975D01*
X0162781Y0136941D01*
X0162748Y0136904D01*
X0162718Y0136865D01*
X0162691Y0136823D01*
X0162668Y0136780D01*
X0162648Y0136735D01*
X0162631Y0136688D01*
X0162618Y0136641D01*
X0162609Y0136592D01*
X0162603Y0136543D01*
X0162601Y0136494D01*
X0165320Y0135850D02*
X0165320Y0137139D01*
X0166931Y0137139D01*
X0166286Y0135850D02*
X0165320Y0135850D01*
X0166286Y0135849D02*
X0166334Y0135847D01*
X0166382Y0135842D01*
X0166429Y0135833D01*
X0166476Y0135820D01*
X0166521Y0135804D01*
X0166565Y0135785D01*
X0166608Y0135763D01*
X0166649Y0135737D01*
X0166688Y0135708D01*
X0166724Y0135677D01*
X0166758Y0135643D01*
X0166789Y0135607D01*
X0166818Y0135568D01*
X0166844Y0135527D01*
X0166866Y0135484D01*
X0166885Y0135440D01*
X0166901Y0135395D01*
X0166914Y0135348D01*
X0166923Y0135301D01*
X0166928Y0135253D01*
X0166930Y0135205D01*
X0166931Y0135205D02*
X0166931Y0134883D01*
X0166930Y0134883D02*
X0166928Y0134835D01*
X0166923Y0134787D01*
X0166914Y0134740D01*
X0166901Y0134693D01*
X0166885Y0134648D01*
X0166866Y0134604D01*
X0166844Y0134561D01*
X0166818Y0134520D01*
X0166789Y0134481D01*
X0166758Y0134445D01*
X0166724Y0134411D01*
X0166688Y0134380D01*
X0166649Y0134351D01*
X0166608Y0134325D01*
X0166565Y0134303D01*
X0166521Y0134284D01*
X0166476Y0134268D01*
X0166429Y0134255D01*
X0166382Y0134246D01*
X0166334Y0134241D01*
X0166286Y0134239D01*
X0165320Y0134239D01*
X0168522Y0134239D02*
X0168592Y0134241D01*
X0168661Y0134247D01*
X0168731Y0134256D01*
X0168799Y0134269D01*
X0168867Y0134286D01*
X0168934Y0134306D01*
X0168999Y0134331D01*
X0169063Y0134358D01*
X0169126Y0134389D01*
X0169187Y0134424D01*
X0169245Y0134461D01*
X0169302Y0134502D01*
X0169356Y0134546D01*
X0169408Y0134592D01*
X0169458Y0134642D01*
X0169504Y0134694D01*
X0169548Y0134748D01*
X0169589Y0134805D01*
X0169626Y0134863D01*
X0169661Y0134924D01*
X0169692Y0134987D01*
X0169719Y0135051D01*
X0169744Y0135116D01*
X0169764Y0135183D01*
X0169781Y0135251D01*
X0169794Y0135319D01*
X0169803Y0135389D01*
X0169809Y0135458D01*
X0169811Y0135528D01*
X0169811Y0136333D01*
X0169811Y0135528D02*
X0168844Y0135528D01*
X0168796Y0135530D01*
X0168748Y0135535D01*
X0168701Y0135544D01*
X0168654Y0135557D01*
X0168609Y0135573D01*
X0168565Y0135592D01*
X0168522Y0135614D01*
X0168481Y0135640D01*
X0168442Y0135669D01*
X0168406Y0135700D01*
X0168372Y0135734D01*
X0168340Y0135770D01*
X0168312Y0135809D01*
X0168286Y0135850D01*
X0168264Y0135893D01*
X0168245Y0135937D01*
X0168229Y0135982D01*
X0168216Y0136029D01*
X0168207Y0136076D01*
X0168202Y0136124D01*
X0168200Y0136172D01*
X0168200Y0136333D01*
X0168199Y0136333D02*
X0168201Y0136388D01*
X0168207Y0136443D01*
X0168216Y0136497D01*
X0168229Y0136550D01*
X0168246Y0136603D01*
X0168266Y0136654D01*
X0168289Y0136704D01*
X0168316Y0136752D01*
X0168347Y0136798D01*
X0168380Y0136842D01*
X0168416Y0136883D01*
X0168455Y0136922D01*
X0168496Y0136958D01*
X0168540Y0136991D01*
X0168586Y0137022D01*
X0168634Y0137049D01*
X0168684Y0137072D01*
X0168735Y0137092D01*
X0168788Y0137109D01*
X0168841Y0137122D01*
X0168895Y0137131D01*
X0168950Y0137137D01*
X0169005Y0137139D01*
X0169060Y0137137D01*
X0169115Y0137131D01*
X0169169Y0137122D01*
X0169222Y0137109D01*
X0169275Y0137092D01*
X0169326Y0137072D01*
X0169376Y0137049D01*
X0169424Y0137022D01*
X0169470Y0136991D01*
X0169514Y0136958D01*
X0169555Y0136922D01*
X0169594Y0136883D01*
X0169630Y0136842D01*
X0169663Y0136798D01*
X0169694Y0136752D01*
X0169721Y0136704D01*
X0169744Y0136654D01*
X0169764Y0136603D01*
X0169781Y0136550D01*
X0169794Y0136497D01*
X0169803Y0136443D01*
X0169809Y0136388D01*
X0169811Y0136333D01*
X0172449Y0135850D02*
X0172486Y0135887D01*
X0172520Y0135927D01*
X0172552Y0135969D01*
X0172580Y0136014D01*
X0172606Y0136060D01*
X0172628Y0136107D01*
X0172647Y0136156D01*
X0172663Y0136206D01*
X0172675Y0136257D01*
X0172684Y0136309D01*
X0172689Y0136361D01*
X0172691Y0136414D01*
X0172449Y0135850D02*
X0171080Y0134239D01*
X0172691Y0134239D01*
X0171080Y0136494D02*
X0171100Y0136549D01*
X0171123Y0136603D01*
X0171150Y0136655D01*
X0171180Y0136705D01*
X0171212Y0136754D01*
X0171248Y0136800D01*
X0171287Y0136844D01*
X0171328Y0136885D01*
X0171372Y0136924D01*
X0171418Y0136960D01*
X0171467Y0136993D01*
X0171517Y0137023D01*
X0171569Y0137049D01*
X0171623Y0137073D01*
X0171678Y0137092D01*
X0171734Y0137109D01*
X0171791Y0137121D01*
X0171849Y0137131D01*
X0171907Y0137136D01*
X0171966Y0137138D01*
X0171966Y0137139D02*
X0172018Y0137137D01*
X0172069Y0137132D01*
X0172120Y0137122D01*
X0172170Y0137110D01*
X0172219Y0137093D01*
X0172267Y0137073D01*
X0172313Y0137050D01*
X0172358Y0137024D01*
X0172400Y0136994D01*
X0172441Y0136962D01*
X0172479Y0136927D01*
X0172514Y0136889D01*
X0172546Y0136848D01*
X0172576Y0136806D01*
X0172602Y0136761D01*
X0172625Y0136715D01*
X0172645Y0136667D01*
X0172662Y0136618D01*
X0172674Y0136568D01*
X0172684Y0136517D01*
X0172689Y0136466D01*
X0172691Y0136414D01*
X0158423Y0134239D02*
X0158262Y0134239D01*
X0158220Y0134241D01*
X0158178Y0134246D01*
X0158137Y0134255D01*
X0158097Y0134268D01*
X0158058Y0134284D01*
X0158021Y0134304D01*
X0157985Y0134326D01*
X0157952Y0134352D01*
X0157920Y0134380D01*
X0157892Y0134412D01*
X0157866Y0134445D01*
X0157844Y0134481D01*
X0157824Y0134518D01*
X0157808Y0134557D01*
X0157795Y0134597D01*
X0157786Y0134638D01*
X0157781Y0134680D01*
X0157779Y0134722D01*
X0145549Y0134239D02*
X0145507Y0134241D01*
X0145465Y0134246D01*
X0145424Y0134255D01*
X0145384Y0134268D01*
X0145345Y0134284D01*
X0145308Y0134304D01*
X0145272Y0134326D01*
X0145239Y0134352D01*
X0145207Y0134380D01*
X0145179Y0134412D01*
X0145153Y0134445D01*
X0145131Y0134481D01*
X0145111Y0134518D01*
X0145095Y0134557D01*
X0145082Y0134597D01*
X0145073Y0134638D01*
X0145068Y0134680D01*
X0145066Y0134722D01*
X0078608Y0157545D02*
X0078608Y0157868D01*
X0077641Y0157868D01*
X0077641Y0155934D01*
X0076320Y0155934D02*
X0075514Y0155934D01*
X0075514Y0155935D02*
X0075472Y0155937D01*
X0075430Y0155942D01*
X0075389Y0155951D01*
X0075349Y0155964D01*
X0075310Y0155980D01*
X0075273Y0156000D01*
X0075237Y0156022D01*
X0075204Y0156048D01*
X0075172Y0156076D01*
X0075144Y0156108D01*
X0075118Y0156141D01*
X0075096Y0156177D01*
X0075076Y0156214D01*
X0075060Y0156253D01*
X0075047Y0156293D01*
X0075038Y0156334D01*
X0075033Y0156376D01*
X0075031Y0156418D01*
X0075031Y0157223D01*
X0075031Y0156901D02*
X0076320Y0156901D01*
X0076320Y0157223D01*
X0076319Y0157223D02*
X0076317Y0157272D01*
X0076311Y0157321D01*
X0076302Y0157370D01*
X0076289Y0157417D01*
X0076272Y0157464D01*
X0076252Y0157509D01*
X0076229Y0157552D01*
X0076202Y0157594D01*
X0076172Y0157633D01*
X0076139Y0157670D01*
X0076103Y0157704D01*
X0076065Y0157735D01*
X0076025Y0157764D01*
X0075983Y0157789D01*
X0075938Y0157811D01*
X0075893Y0157829D01*
X0075846Y0157844D01*
X0075798Y0157855D01*
X0075749Y0157863D01*
X0075700Y0157867D01*
X0075650Y0157867D01*
X0075601Y0157863D01*
X0075552Y0157855D01*
X0075504Y0157844D01*
X0075457Y0157829D01*
X0075412Y0157811D01*
X0075367Y0157789D01*
X0075325Y0157764D01*
X0075285Y0157735D01*
X0075247Y0157704D01*
X0075211Y0157670D01*
X0075178Y0157633D01*
X0075148Y0157594D01*
X0075121Y0157552D01*
X0075098Y0157509D01*
X0075078Y0157464D01*
X0075061Y0157417D01*
X0075048Y0157370D01*
X0075039Y0157321D01*
X0075033Y0157272D01*
X0075031Y0157223D01*
X0073926Y0157868D02*
X0072959Y0157868D01*
X0073281Y0158834D02*
X0073281Y0156418D01*
X0073283Y0156376D01*
X0073288Y0156334D01*
X0073297Y0156293D01*
X0073310Y0156253D01*
X0073326Y0156214D01*
X0073346Y0156177D01*
X0073368Y0156141D01*
X0073394Y0156108D01*
X0073422Y0156076D01*
X0073454Y0156048D01*
X0073487Y0156022D01*
X0073523Y0156000D01*
X0073560Y0155980D01*
X0073599Y0155964D01*
X0073639Y0155951D01*
X0073680Y0155942D01*
X0073722Y0155937D01*
X0073764Y0155935D01*
X0073764Y0155934D02*
X0073926Y0155934D01*
X0072016Y0156418D02*
X0072016Y0157384D01*
X0072014Y0157426D01*
X0072009Y0157468D01*
X0072000Y0157509D01*
X0071987Y0157549D01*
X0071971Y0157588D01*
X0071951Y0157626D01*
X0071929Y0157661D01*
X0071903Y0157694D01*
X0071875Y0157726D01*
X0071843Y0157754D01*
X0071810Y0157780D01*
X0071775Y0157802D01*
X0071737Y0157822D01*
X0071698Y0157838D01*
X0071658Y0157851D01*
X0071617Y0157860D01*
X0071575Y0157865D01*
X0071533Y0157867D01*
X0071533Y0157868D02*
X0070727Y0157868D01*
X0070727Y0154968D01*
X0070727Y0155934D02*
X0071533Y0155934D01*
X0071533Y0155935D02*
X0071575Y0155937D01*
X0071617Y0155942D01*
X0071658Y0155951D01*
X0071698Y0155964D01*
X0071737Y0155980D01*
X0071775Y0156000D01*
X0071810Y0156022D01*
X0071843Y0156048D01*
X0071875Y0156076D01*
X0071903Y0156108D01*
X0071929Y0156141D01*
X0071951Y0156177D01*
X0071971Y0156214D01*
X0071987Y0156253D01*
X0072000Y0156293D01*
X0072009Y0156334D01*
X0072014Y0156376D01*
X0072016Y0156418D01*
X0069296Y0155934D02*
X0069296Y0157384D01*
X0069296Y0157062D02*
X0068571Y0157062D01*
X0069295Y0157384D02*
X0069293Y0157426D01*
X0069288Y0157468D01*
X0069279Y0157509D01*
X0069266Y0157549D01*
X0069250Y0157588D01*
X0069230Y0157626D01*
X0069208Y0157661D01*
X0069182Y0157694D01*
X0069154Y0157726D01*
X0069122Y0157754D01*
X0069089Y0157780D01*
X0069054Y0157802D01*
X0069016Y0157822D01*
X0068977Y0157838D01*
X0068937Y0157851D01*
X0068896Y0157860D01*
X0068854Y0157865D01*
X0068812Y0157867D01*
X0068812Y0157868D02*
X0068168Y0157868D01*
X0068571Y0157062D02*
X0068524Y0157060D01*
X0068478Y0157054D01*
X0068433Y0157045D01*
X0068388Y0157031D01*
X0068344Y0157014D01*
X0068303Y0156994D01*
X0068263Y0156970D01*
X0068225Y0156943D01*
X0068189Y0156913D01*
X0068156Y0156880D01*
X0068126Y0156844D01*
X0068099Y0156806D01*
X0068075Y0156766D01*
X0068055Y0156725D01*
X0068038Y0156681D01*
X0068024Y0156636D01*
X0068015Y0156591D01*
X0068009Y0156545D01*
X0068007Y0156498D01*
X0068009Y0156451D01*
X0068015Y0156405D01*
X0068024Y0156360D01*
X0068038Y0156315D01*
X0068055Y0156271D01*
X0068075Y0156230D01*
X0068099Y0156190D01*
X0068126Y0156152D01*
X0068156Y0156116D01*
X0068189Y0156083D01*
X0068225Y0156053D01*
X0068263Y0156026D01*
X0068303Y0156002D01*
X0068344Y0155982D01*
X0068388Y0155965D01*
X0068433Y0155951D01*
X0068478Y0155942D01*
X0068524Y0155936D01*
X0068571Y0155934D01*
X0069296Y0155934D01*
X0066704Y0155934D02*
X0065898Y0155934D01*
X0065898Y0155935D02*
X0065856Y0155937D01*
X0065814Y0155942D01*
X0065773Y0155951D01*
X0065733Y0155964D01*
X0065694Y0155980D01*
X0065657Y0156000D01*
X0065621Y0156022D01*
X0065588Y0156048D01*
X0065556Y0156076D01*
X0065528Y0156108D01*
X0065502Y0156141D01*
X0065480Y0156177D01*
X0065460Y0156214D01*
X0065444Y0156253D01*
X0065431Y0156293D01*
X0065422Y0156334D01*
X0065417Y0156376D01*
X0065415Y0156418D01*
X0065415Y0157384D01*
X0065417Y0157426D01*
X0065422Y0157468D01*
X0065431Y0157509D01*
X0065444Y0157549D01*
X0065460Y0157588D01*
X0065480Y0157626D01*
X0065502Y0157661D01*
X0065528Y0157694D01*
X0065556Y0157726D01*
X0065588Y0157754D01*
X0065621Y0157780D01*
X0065657Y0157802D01*
X0065694Y0157822D01*
X0065733Y0157838D01*
X0065773Y0157851D01*
X0065814Y0157860D01*
X0065856Y0157865D01*
X0065898Y0157867D01*
X0065898Y0157868D02*
X0066704Y0157868D01*
X0066704Y0158834D02*
X0066704Y0155934D01*
X0064354Y0155934D02*
X0063387Y0158834D01*
X0062421Y0155934D01*
X0062662Y0156659D02*
X0064112Y0156659D01*
X0059910Y0155934D02*
X0059748Y0155934D01*
X0059748Y0155935D02*
X0059706Y0155937D01*
X0059664Y0155942D01*
X0059623Y0155951D01*
X0059583Y0155964D01*
X0059544Y0155980D01*
X0059507Y0156000D01*
X0059471Y0156022D01*
X0059438Y0156048D01*
X0059406Y0156076D01*
X0059378Y0156108D01*
X0059352Y0156141D01*
X0059330Y0156177D01*
X0059310Y0156214D01*
X0059294Y0156253D01*
X0059281Y0156293D01*
X0059272Y0156334D01*
X0059267Y0156376D01*
X0059265Y0156418D01*
X0059265Y0158834D01*
X0058943Y0157868D02*
X0059910Y0157868D01*
X0057872Y0157384D02*
X0057872Y0155934D01*
X0057147Y0155934D01*
X0057100Y0155936D01*
X0057054Y0155942D01*
X0057009Y0155951D01*
X0056964Y0155965D01*
X0056920Y0155982D01*
X0056879Y0156002D01*
X0056839Y0156026D01*
X0056801Y0156053D01*
X0056765Y0156083D01*
X0056732Y0156116D01*
X0056702Y0156152D01*
X0056675Y0156190D01*
X0056651Y0156230D01*
X0056631Y0156271D01*
X0056614Y0156315D01*
X0056600Y0156360D01*
X0056591Y0156405D01*
X0056585Y0156451D01*
X0056583Y0156498D01*
X0056585Y0156545D01*
X0056591Y0156591D01*
X0056600Y0156636D01*
X0056614Y0156681D01*
X0056631Y0156725D01*
X0056651Y0156766D01*
X0056675Y0156806D01*
X0056702Y0156844D01*
X0056732Y0156880D01*
X0056765Y0156913D01*
X0056801Y0156943D01*
X0056839Y0156970D01*
X0056879Y0156994D01*
X0056920Y0157014D01*
X0056964Y0157031D01*
X0057009Y0157045D01*
X0057054Y0157054D01*
X0057100Y0157060D01*
X0057147Y0157062D01*
X0057872Y0157062D01*
X0057872Y0157384D02*
X0057870Y0157426D01*
X0057865Y0157468D01*
X0057856Y0157509D01*
X0057843Y0157549D01*
X0057827Y0157588D01*
X0057807Y0157626D01*
X0057785Y0157661D01*
X0057759Y0157694D01*
X0057731Y0157726D01*
X0057699Y0157754D01*
X0057666Y0157780D01*
X0057631Y0157802D01*
X0057593Y0157822D01*
X0057554Y0157838D01*
X0057514Y0157851D01*
X0057473Y0157860D01*
X0057431Y0157865D01*
X0057389Y0157867D01*
X0057389Y0157868D02*
X0056744Y0157868D01*
X0055296Y0157384D02*
X0055296Y0155934D01*
X0054007Y0155934D02*
X0054007Y0158834D01*
X0054007Y0157868D02*
X0054813Y0157868D01*
X0054813Y0157867D02*
X0054855Y0157865D01*
X0054897Y0157860D01*
X0054938Y0157851D01*
X0054978Y0157838D01*
X0055017Y0157822D01*
X0055055Y0157802D01*
X0055090Y0157780D01*
X0055123Y0157754D01*
X0055155Y0157726D01*
X0055183Y0157694D01*
X0055209Y0157661D01*
X0055231Y0157626D01*
X0055251Y0157588D01*
X0055267Y0157549D01*
X0055280Y0157509D01*
X0055289Y0157468D01*
X0055294Y0157426D01*
X0055296Y0157384D01*
X0052010Y0157223D02*
X0051204Y0157223D01*
X0052010Y0157223D02*
X0052065Y0157225D01*
X0052120Y0157231D01*
X0052174Y0157240D01*
X0052227Y0157253D01*
X0052280Y0157270D01*
X0052331Y0157290D01*
X0052381Y0157313D01*
X0052429Y0157340D01*
X0052475Y0157371D01*
X0052519Y0157404D01*
X0052560Y0157440D01*
X0052599Y0157479D01*
X0052635Y0157520D01*
X0052668Y0157564D01*
X0052699Y0157610D01*
X0052726Y0157658D01*
X0052749Y0157708D01*
X0052769Y0157759D01*
X0052786Y0157812D01*
X0052799Y0157865D01*
X0052808Y0157919D01*
X0052814Y0157974D01*
X0052816Y0158029D01*
X0052814Y0158084D01*
X0052808Y0158139D01*
X0052799Y0158193D01*
X0052786Y0158246D01*
X0052769Y0158299D01*
X0052749Y0158350D01*
X0052726Y0158400D01*
X0052699Y0158448D01*
X0052668Y0158494D01*
X0052635Y0158538D01*
X0052599Y0158579D01*
X0052560Y0158618D01*
X0052519Y0158654D01*
X0052475Y0158687D01*
X0052429Y0158718D01*
X0052381Y0158745D01*
X0052331Y0158768D01*
X0052280Y0158788D01*
X0052227Y0158805D01*
X0052174Y0158818D01*
X0052120Y0158827D01*
X0052065Y0158833D01*
X0052010Y0158835D01*
X0052010Y0158834D02*
X0051204Y0158834D01*
X0051204Y0155934D01*
X0047594Y0155934D02*
X0046788Y0155934D01*
X0046788Y0158834D01*
X0047594Y0158834D01*
X0047643Y0158832D01*
X0047692Y0158826D01*
X0047741Y0158817D01*
X0047788Y0158804D01*
X0047835Y0158787D01*
X0047880Y0158767D01*
X0047923Y0158744D01*
X0047965Y0158717D01*
X0048004Y0158687D01*
X0048041Y0158654D01*
X0048075Y0158618D01*
X0048106Y0158580D01*
X0048135Y0158540D01*
X0048160Y0158498D01*
X0048182Y0158453D01*
X0048200Y0158408D01*
X0048215Y0158361D01*
X0048226Y0158313D01*
X0048234Y0158264D01*
X0048238Y0158215D01*
X0048238Y0158165D01*
X0048234Y0158116D01*
X0048226Y0158067D01*
X0048215Y0158019D01*
X0048200Y0157972D01*
X0048182Y0157927D01*
X0048160Y0157882D01*
X0048135Y0157840D01*
X0048106Y0157800D01*
X0048075Y0157762D01*
X0048041Y0157726D01*
X0048004Y0157693D01*
X0047965Y0157663D01*
X0047923Y0157636D01*
X0047880Y0157613D01*
X0047835Y0157593D01*
X0047788Y0157576D01*
X0047741Y0157563D01*
X0047692Y0157554D01*
X0047643Y0157548D01*
X0047594Y0157546D01*
X0047594Y0157545D02*
X0046788Y0157545D01*
X0047594Y0157546D02*
X0047649Y0157544D01*
X0047704Y0157538D01*
X0047758Y0157529D01*
X0047811Y0157516D01*
X0047864Y0157499D01*
X0047915Y0157479D01*
X0047965Y0157456D01*
X0048013Y0157429D01*
X0048059Y0157398D01*
X0048103Y0157365D01*
X0048144Y0157329D01*
X0048183Y0157290D01*
X0048219Y0157249D01*
X0048252Y0157205D01*
X0048283Y0157159D01*
X0048310Y0157111D01*
X0048333Y0157061D01*
X0048353Y0157010D01*
X0048370Y0156957D01*
X0048383Y0156904D01*
X0048392Y0156850D01*
X0048398Y0156795D01*
X0048400Y0156740D01*
X0048398Y0156685D01*
X0048392Y0156630D01*
X0048383Y0156576D01*
X0048370Y0156523D01*
X0048353Y0156470D01*
X0048333Y0156419D01*
X0048310Y0156369D01*
X0048283Y0156321D01*
X0048252Y0156275D01*
X0048219Y0156231D01*
X0048183Y0156190D01*
X0048144Y0156151D01*
X0048103Y0156115D01*
X0048059Y0156082D01*
X0048013Y0156051D01*
X0047965Y0156024D01*
X0047915Y0156001D01*
X0047864Y0155981D01*
X0047811Y0155964D01*
X0047758Y0155951D01*
X0047704Y0155942D01*
X0047649Y0155936D01*
X0047594Y0155934D01*
X0045250Y0155934D02*
X0045250Y0158834D01*
X0044284Y0157223D01*
X0043317Y0158834D01*
X0043317Y0155934D01*
X0041921Y0156740D02*
X0041921Y0156901D01*
X0041919Y0156949D01*
X0041914Y0156997D01*
X0041905Y0157044D01*
X0041892Y0157091D01*
X0041876Y0157136D01*
X0041857Y0157180D01*
X0041835Y0157223D01*
X0041809Y0157264D01*
X0041780Y0157303D01*
X0041749Y0157339D01*
X0041715Y0157373D01*
X0041679Y0157404D01*
X0041640Y0157433D01*
X0041599Y0157459D01*
X0041556Y0157481D01*
X0041512Y0157500D01*
X0041467Y0157516D01*
X0041420Y0157529D01*
X0041373Y0157538D01*
X0041325Y0157543D01*
X0041277Y0157545D01*
X0040310Y0157545D01*
X0040310Y0156740D01*
X0040312Y0156685D01*
X0040318Y0156630D01*
X0040327Y0156576D01*
X0040340Y0156523D01*
X0040357Y0156470D01*
X0040377Y0156419D01*
X0040400Y0156369D01*
X0040427Y0156321D01*
X0040458Y0156275D01*
X0040491Y0156231D01*
X0040527Y0156190D01*
X0040566Y0156151D01*
X0040607Y0156115D01*
X0040651Y0156082D01*
X0040697Y0156051D01*
X0040745Y0156024D01*
X0040795Y0156001D01*
X0040846Y0155981D01*
X0040899Y0155964D01*
X0040952Y0155951D01*
X0041006Y0155942D01*
X0041061Y0155936D01*
X0041116Y0155934D01*
X0041171Y0155936D01*
X0041226Y0155942D01*
X0041280Y0155951D01*
X0041333Y0155964D01*
X0041386Y0155981D01*
X0041437Y0156001D01*
X0041487Y0156024D01*
X0041535Y0156051D01*
X0041581Y0156082D01*
X0041625Y0156115D01*
X0041666Y0156151D01*
X0041705Y0156190D01*
X0041741Y0156231D01*
X0041774Y0156275D01*
X0041805Y0156321D01*
X0041832Y0156369D01*
X0041855Y0156419D01*
X0041875Y0156470D01*
X0041892Y0156523D01*
X0041905Y0156576D01*
X0041914Y0156630D01*
X0041920Y0156685D01*
X0041922Y0156740D01*
X0040310Y0157545D02*
X0040312Y0157615D01*
X0040318Y0157684D01*
X0040327Y0157754D01*
X0040340Y0157822D01*
X0040357Y0157890D01*
X0040377Y0157957D01*
X0040402Y0158022D01*
X0040429Y0158086D01*
X0040460Y0158149D01*
X0040495Y0158210D01*
X0040532Y0158268D01*
X0040573Y0158325D01*
X0040617Y0158379D01*
X0040663Y0158431D01*
X0040713Y0158481D01*
X0040765Y0158527D01*
X0040819Y0158571D01*
X0040876Y0158612D01*
X0040934Y0158649D01*
X0040995Y0158684D01*
X0041058Y0158715D01*
X0041122Y0158742D01*
X0041187Y0158767D01*
X0041254Y0158787D01*
X0041322Y0158804D01*
X0041390Y0158817D01*
X0041460Y0158826D01*
X0041529Y0158832D01*
X0041599Y0158834D01*
X0038236Y0158834D02*
X0038236Y0155934D01*
X0039041Y0155934D02*
X0037430Y0155934D01*
X0037430Y0158190D02*
X0038236Y0158834D01*
M02*
