G75*
%MOIN*%
%OFA0B0*%
%FSLAX25Y25*%
%IPPOS*%
%LPD*%
%AMOC8*
5,1,8,0,0,1.08239X$1,22.5*
%
%ADD10C,0.09449*%
%ADD11C,0.02978*%
%ADD12C,0.04356*%
%ADD13C,0.00591*%
D10*
X0119990Y0052923D03*
D11*
X0141839Y0081030D03*
X0141912Y0081092D03*
X0144513Y0087190D03*
X0148963Y0083000D03*
X0134326Y0142938D03*
X0139332Y0143390D03*
X0144499Y0143148D03*
X0149666Y0143228D03*
D12*
X0100529Y0142491D03*
X0100529Y0137464D03*
X0100529Y0132436D03*
X0100436Y0127461D03*
X0100436Y0122434D03*
X0100436Y0117406D03*
X0100529Y0147515D03*
X0018950Y0149052D03*
X0018950Y0144025D03*
X0018950Y0138997D03*
X0018857Y0134022D03*
X0018857Y0123967D03*
X0018857Y0118943D03*
X0018842Y0113879D03*
X0018842Y0103828D03*
D13*
X0017795Y0103902D02*
X0010501Y0103941D01*
X0002779Y0110616D01*
X0002779Y0155496D01*
X0008354Y0161070D01*
X0113754Y0161070D01*
X0131396Y0143273D01*
X0131394Y0143209D02*
X0134434Y0143186D01*
X0139582Y0142937D02*
X0139582Y0138435D01*
X0138461Y0137314D01*
X0128216Y0137314D01*
X0126422Y0139108D01*
X0126422Y0145763D01*
X0113116Y0159068D01*
X0009771Y0159068D01*
X0005340Y0154637D01*
X0005228Y0118926D01*
X0007339Y0116934D01*
X0011025Y0113795D01*
X0018157Y0113883D01*
X0018285Y0119313D02*
X0018006Y0119592D01*
X0011133Y0119616D01*
X0007730Y0122122D01*
X0007730Y0152972D01*
X0011639Y0156881D01*
X0112724Y0156881D01*
X0124592Y0145013D01*
X0124592Y0138454D01*
X0127384Y0135662D01*
X0141849Y0135662D01*
X0144641Y0138454D01*
X0144641Y0143281D01*
X0149946Y0142862D02*
X0149946Y0136360D01*
X0147433Y0133847D01*
X0126686Y0133847D01*
X0122637Y0137896D01*
X0122637Y0145014D01*
X0112586Y0155066D01*
X0012896Y0155066D01*
X0009685Y0151855D01*
X0009489Y0129509D01*
X0009480Y0129631D02*
X0009576Y0125993D01*
X0011741Y0123852D01*
X0018115Y0123884D01*
X0101233Y0122408D02*
X0112213Y0122408D01*
X0121835Y0112786D01*
X0121835Y0095475D01*
X0129776Y0087535D01*
X0145004Y0087535D01*
X0145008Y0087531D01*
X0145008Y0087530D01*
X0149004Y0083052D02*
X0150339Y0084387D01*
X0150339Y0090464D01*
X0147834Y0092969D01*
X0132590Y0092969D01*
X0125548Y0100011D01*
X0125548Y0116276D01*
X0109351Y0132474D01*
X0101325Y0132474D01*
X0101223Y0117388D02*
X0110668Y0117365D01*
X0117770Y0110263D01*
X0117770Y0094562D01*
X0130790Y0081542D01*
X0141621Y0081509D01*
M02*
