%
M48
M72
T01C0.0138
T02C0.0276
T03C0.0630
%
T01
X13433Y14294
X13933Y14339
X14450Y14315
X14967Y14323
X14451Y8719
X14896Y8300
X14191Y8109
X14184Y8103
T02
X1884Y10383
X1884Y11388
X1886Y11894
X1886Y12397
X1886Y13402
X1895Y13900
X1895Y14402
X1895Y14905
X10053Y14752
X10053Y14249
X10053Y13746
X10053Y13244
X10044Y12746
X10044Y12243
X10044Y11741
T03
X11999Y5292
M30
